<?xml version="1.0" encoding="UTF-8" standalone="no"?>
<svg width="100px" height="100px" viewBox="0 0 100 100" version="1.1" xmlns="http://www.w3.org/2000/svg" xmlns:xlink="http://www.w3.org/1999/xlink">
    <defs></defs>
    <g id="Page-1" stroke="none" stroke-width="1" fill="none" fill-rule="evenodd">
        <g id="eidar">
            <g id="Imported-Layers" transform="translate(-3.000000, 4.000000)">
                <path d="M49.5078125,81.9058376 L54.1519886,88.9538071 L57.8107244,78.7718274" id="Fill-2" fill="#619210"></path>
                <path d="M66.1239347,66.1352284 L76.8774858,56.3245685 C70.0870028,53.4286294 62.5827415,51.8189848 54.6903409,51.8189848 C27.5852273,51.8189848 5.04225852,70.7737056 0.351917614,95.7743655 L88.4360795,95.7743655 L66.1239347,66.1352284" id="Fill-3" fill="#000000"></path>
                <path d="M51.2567472,69.1743655 L57.8107244,78.7718274 L45.3547585,85.6513706 L41.8245739,72.5340102 L49.018821,68.5347716" id="Fill-4" fill="#A4C921"></path>
                <path d="M43.7276278,81.7175127 L49.7134233,95.7743655 L58.987571,95.7743655 L48.8586648,80.7716244 L37.0486506,58.3769543 L32.3931108,51.898934 L26.3178267,56.8575635 L37.4367898,88.9033503 L43.7276278,81.7175127" id="Fill-5" fill="#CEE7A2"></path>
                <path id="Fill-6" fill="#000000" d="M57.4921875,79.693198 L57.4921875,78.2981726 L57.2524858,77.942132 L57.2524858,80.3860914 L57.4921875,79.693198"></path>
                <path id="Fill-7" fill="#000000" d="M33.397017,53.1784772 L30.8252841,53.1784772 L30.5301847,53.4193909 L33.5862926,53.4193909 L33.397017,53.1784772"></path>
                <path id="Fill-8" fill="#000000" d="M32.6441761,52.2190863 L32.0007102,52.2190863 L31.7077415,52.4585787 L32.8323864,52.4585787 L32.6441761,52.2190863"></path>
                <path d="M28.7159091,63.7694416 L28.7159091,59.1775127 L34.2112926,59.1775127 L34.0486506,58.9373096 L28.7159091,58.9373096 L28.7159091,56.2982741 L28.7162642,56.2982741 L28.7162642,54.9000508 L28.4765625,55.0958376 L28.4765625,56.0577157 L28.4758523,56.0577157 L28.4758523,58.9373096 L27.0394176,58.9373096 L27.1228693,59.1775127 L28.4758523,59.1775127 L28.4758523,63.0783249 L28.7159091,63.7694416" id="Fill-9" fill="#000000"></path>
                <path d="M57.4918324,95.8340609 L57.4918324,93.7283756 L57.6392045,93.7283756 L57.2521307,93.168731 L57.2521307,93.4888832 L56.5319602,93.4888832 L56.5319602,92.1290355 L56.2922585,91.7825888 L56.2922585,93.4888832 L55.0933949,93.4888832 L55.0933949,90.0503553 L54.8536932,89.7035533 L54.8536932,93.4888832 L54.1349432,93.4888832 L54.1349432,90.6092893 L54.134233,90.6092893 L54.134233,87.9702538 L54.6264205,87.9702538 L54.7091619,87.7300508 L54.134233,87.7300508 L54.134233,87.0105076 L54.8536932,87.0105076 L54.8536932,87.3143147 L55.0933949,86.6217766 L55.0933949,85.5703553 L55.4573864,85.5703553 L55.5401278,85.3305076 L55.0933949,85.3305076 L55.0933949,84.6109645 L55.7890625,84.6109645 L55.8728693,84.3707614 L55.0933949,84.3707614 L55.0933949,83.1715228 L56.287642,83.1715228 L56.5319602,82.4658376 L56.5319602,82.2117766 L56.6200284,82.2117766 L56.7034801,81.9715736 L56.5319602,81.9715736 L56.5319602,76.8725888 L56.2922585,76.5165482 L56.2922585,81.9715736 L55.0933949,81.9715736 L55.0933949,76.4529442 L56.2496449,76.4529442 L56.0880682,76.2134518 L55.0933949,76.2134518 L55.0933949,74.7356345 L54.8536932,74.3799492 L54.8536932,76.2134518 L54.134233,76.2134518 L54.134233,73.3114721 L53.8941761,72.9557868 L53.8941761,76.2134518 L52.6956676,76.2134518 L52.6956676,73.0058883 L52.456321,73.491269 L52.456321,76.2134518 L51.7365057,76.2134518 L51.7365057,74.9470558 L51.496804,75.4324365 L51.496804,76.2134518 L51.1107955,76.2134518 L50.9921875,76.4529442 L51.496804,76.4529442 L51.496804,81.9715736 L45.981179,81.9715736 L45.981179,76.5296954 L45.7411222,76.1761421 L45.7411222,76.2134518 L40.2269176,76.2134518 L40.2269176,70.6941117 L42.0230824,70.6941117 L41.8600852,70.454264 L40.2269176,70.454264 L40.2269176,69.7347208 L41.3725142,69.7347208 L41.2091619,69.4941624 L40.2269176,69.4941624 L40.2269176,68.2949239 L40.3955966,68.2949239 L40.2325994,68.0547208 L40.2269176,68.0547208 L40.2269176,68.0461929 L39.9861506,67.6912183 L39.9861506,68.0547208 L39.2666903,68.0547208 L39.2666903,67.3358883 L39.7453835,67.3358883 L39.5816761,67.0949746 L39.2666903,67.0949746 L39.2666903,66.6309137 L39.0269886,66.2773604 L39.0269886,67.0949746 L37.828125,67.0949746 L37.828125,65.895736 L38.768821,65.895736 L38.6051136,65.655533 L37.828125,65.655533 L37.828125,64.9356345 L38.1168324,64.9356345 L37.9545455,64.6957868 L37.828125,64.6957868 L37.828125,64.5099492 L37.5880682,64.1567513 L37.5880682,64.6957868 L36.8689631,64.6957868 L36.8689631,63.0960914 L36.6289062,62.7425381 L36.6289062,64.6957868 L35.4303977,64.6957868 L35.4303977,60.9751269 L35.190696,60.6219289 L35.190696,64.6957868 L34.4712358,64.6957868 L34.4712358,59.561269 L34.2315341,59.2077157 L34.2315341,64.6957868 L29.037642,64.6957868 L29.1207386,64.9356345 L34.2315341,64.9356345 L34.2315341,65.655533 L29.3707386,65.655533 L29.4538352,65.895736 L34.2315341,65.895736 L34.2315341,67.0949746 L29.8700284,67.0949746 L29.953125,67.3358883 L34.2315341,67.3358883 L34.2315341,68.0547208 L30.203125,68.0547208 L30.2862216,68.2949239 L34.2315341,68.2949239 L34.2315341,69.4941624 L30.7027699,69.4941624 L30.7858665,69.7347208 L34.2315341,69.7347208 L34.2315341,70.454264 L31.0351562,70.454264 L31.118608,70.6941117 L34.2315341,70.6941117 L34.2315341,76.2134518 L33.0333807,76.2134518 L33.1168324,76.4529442 L34.2315341,76.4529442 L34.2315341,79.6661929 L34.4712358,80.357665 L34.4712358,76.4529442 L35.190696,76.4529442 L35.190696,81.9715736 L35.0308949,81.9715736 L35.1150568,82.2117766 L35.190696,82.2117766 L35.190696,82.4306599 L35.4477983,83.1715228 L36.6289062,83.1715228 L36.6289062,84.3707614 L35.8639915,84.3707614 L35.9470881,84.6109645 L36.6289062,84.6109645 L36.6289062,85.3305076 L36.1970881,85.3305076 L36.2801847,85.5703553 L36.6289062,85.5703553 L36.6289062,86.5770051 L36.8689631,87.2677665 L36.8689631,87.0105076 L37.5880682,87.0105076 L37.5880682,87.7300508 L37.0291193,87.7300508 L37.1132812,87.9702538 L37.5880682,87.9702538 L37.5880682,88.7299492 L37.828125,88.4563452 L37.828125,87.9702538 L38.253196,87.9702538 L38.4641335,87.7300508 L37.828125,87.7300508 L37.828125,87.0105076 L39.0269886,87.0105076 L39.0269886,87.0865482 L39.3036222,86.7710152 L39.2666903,86.7710152 L39.2666903,85.5703553 L39.9861506,85.5703553 L39.9861506,85.9914213 L40.2269176,85.7156853 L40.2269176,85.5703553 L40.3544034,85.5703553 L40.5642756,85.3305076 L40.2269176,85.3305076 L40.2269176,84.6109645 L41.1942472,84.6109645 L41.4041193,84.3707614 L40.2269176,84.3707614 L40.2269176,83.1715228 L42.4545455,83.1715228 L42.6647727,82.9313198 L40.2269176,82.9313198 L40.2269176,82.2117766 L43.2947443,82.2117766 L43.5053267,81.9715736 L40.2269176,81.9715736 L40.2269176,76.4529442 L45.7411222,76.4529442 L45.7411222,81.9715736 L43.8359375,81.9715736 L43.9392756,82.2117766 L45.7411222,82.2117766 L45.7411222,82.9313198 L44.2471591,82.9313198 L44.3494318,83.1715228 L45.7411222,83.1715228 L45.7411222,84.3707614 L44.8629261,84.3707614 L44.9659091,84.6109645 L45.7411222,84.6109645 L45.7411222,85.3305076 L45.2734375,85.3305076 L45.3760653,85.5703553 L45.7411222,85.5703553 L45.7411222,86.4249239 L45.9921875,87.0105076 L51.496804,87.0105076 L51.496804,87.7300508 L46.3004261,87.7300508 L46.4026989,87.9702538 L51.496804,87.9702538 L51.496804,90.6092893 L51.496804,93.4888832 L48.7638494,93.4888832 L48.8661222,93.7283756 L51.496804,93.7283756 L51.496804,95.7846701 L51.7361506,95.7864467 L51.7361506,93.7283756 L52.4556108,93.7283756 L52.4556108,95.7924873 L52.6956676,95.794264 L52.6956676,93.7283756 L53.8952415,93.7283756 L53.8952415,95.8038579 L54.1349432,95.8059898 L54.1349432,93.7283756 L54.8536932,93.7283756 L54.8536932,95.8120305 L55.0933949,95.8138071 L55.0933949,93.7283756 L56.2922585,93.7283756 L56.2922585,95.8237563 L56.5319602,95.8262437 L56.5319602,93.7283756 L57.2521307,93.7283756 L57.2521307,95.8315736 L57.4918324,95.8340609 L57.4918324,95.8340609 Z M55.0933949,82.2117766 L56.2922585,82.2117766 L56.2922585,82.9309645 L55.0933949,82.9309645 L55.0933949,82.2117766 Z M54.134233,76.4529442 L54.8533381,76.4529442 L54.8533381,81.9712183 L54.134233,81.9712183 L54.134233,76.4529442 Z M54.134233,82.2117766 L54.8533381,82.2117766 L54.8533381,82.9309645 L54.134233,82.9309645 L54.134233,82.2117766 Z M54.134233,83.1715228 L54.8533381,83.1715228 L54.8533381,84.3707614 L54.134233,84.3707614 L54.134233,83.1715228 Z M54.134233,84.6109645 L54.8533381,84.6109645 L54.8533381,85.3305076 L54.134233,85.3305076 L54.134233,84.6109645 Z M54.134233,85.5703553 L54.8533381,85.5703553 L54.8533381,86.7710152 L54.134233,86.7710152 L54.134233,85.5703553 Z M34.4712358,70.6941117 L35.190696,70.6941117 L35.190696,76.2134518 L34.4712358,76.2134518 L34.4712358,70.6941117 Z M34.4712358,69.7347208 L35.190696,69.7347208 L35.190696,70.454264 L34.4712358,70.454264 L34.4712358,69.7347208 Z M34.4712358,68.2949239 L35.190696,68.2949239 L35.190696,69.4941624 L34.4712358,69.4941624 L34.4712358,68.2949239 Z M34.4712358,67.3358883 L35.190696,67.3358883 L35.190696,68.0547208 L34.4712358,68.0547208 L34.4712358,67.3358883 Z M34.4712358,65.895736 L35.190696,65.895736 L35.190696,67.0949746 L34.4712358,67.0949746 L34.4712358,65.895736 Z M34.4712358,64.9356345 L35.190696,64.9356345 L35.190696,65.6551777 L34.4712358,65.6551777 L34.4712358,64.9356345 Z M35.4303977,82.2117766 L36.6289062,82.2117766 L36.6289062,82.9309645 L35.4303977,82.9309645 L35.4303977,82.2117766 Z M35.4303977,76.4529442 L36.6289062,76.4529442 L36.6289062,81.9712183 L35.4303977,81.9712183 L35.4303977,76.4529442 Z M35.4303977,70.6941117 L36.6289062,70.6941117 L36.6289062,76.2134518 L35.4303977,76.2134518 L35.4303977,70.6941117 Z M35.4303977,69.7347208 L36.6289062,69.7347208 L36.6289062,70.454264 L35.4303977,70.454264 L35.4303977,69.7347208 Z M35.4303977,68.2949239 L36.6289062,68.2949239 L36.6289062,69.4941624 L35.4303977,69.4941624 L35.4303977,68.2949239 Z M35.4303977,67.3358883 L36.6289062,67.3358883 L36.6289062,68.0547208 L35.4303977,68.0547208 L35.4303977,67.3358883 Z M35.4303977,65.895736 L36.6289062,65.895736 L36.6289062,67.0949746 L35.4303977,67.0949746 L35.4303977,65.895736 Z M35.4303977,64.9356345 L36.6289062,64.9356345 L36.6289062,65.6551777 L35.4303977,65.6551777 L35.4303977,64.9356345 Z M36.8689631,85.5703553 L37.5880682,85.5703553 L37.5880682,86.7710152 L36.8689631,86.7710152 L36.8689631,85.5703553 Z M36.8689631,84.6109645 L37.5880682,84.6109645 L37.5880682,85.3305076 L36.8689631,85.3305076 L36.8689631,84.6109645 Z M36.8689631,83.1715228 L37.5880682,83.1715228 L37.5880682,84.3707614 L36.8689631,84.3707614 L36.8689631,83.1715228 Z M36.8689631,82.2117766 L37.5880682,82.2117766 L37.5880682,82.9309645 L36.8689631,82.9309645 L36.8689631,82.2117766 Z M36.8689631,76.4529442 L37.5880682,76.4529442 L37.5880682,81.9712183 L36.8689631,81.9712183 L36.8689631,76.4529442 Z M36.8689631,70.6941117 L37.5880682,70.6941117 L37.5880682,76.2134518 L36.8689631,76.2134518 L36.8689631,70.6941117 Z M36.8689631,69.7347208 L37.5880682,69.7347208 L37.5880682,70.454264 L36.8689631,70.454264 L36.8689631,69.7347208 Z M36.8689631,68.2949239 L37.5880682,68.2949239 L37.5880682,69.4941624 L36.8689631,69.4941624 L36.8689631,68.2949239 Z M36.8689631,67.3358883 L37.5880682,67.3358883 L37.5880682,68.0547208 L36.8689631,68.0547208 L36.8689631,67.3358883 Z M36.8689631,65.895736 L37.5880682,65.895736 L37.5880682,67.0949746 L36.8689631,67.0949746 L36.8689631,65.895736 Z M36.8689631,64.9356345 L37.5880682,64.9356345 L37.5880682,65.6551777 L36.8689631,65.6551777 L36.8689631,64.9356345 Z M37.828125,85.5703553 L39.0269886,85.5703553 L39.0269886,86.7710152 L37.828125,86.7710152 L37.828125,85.5703553 Z M37.828125,84.6109645 L39.0269886,84.6109645 L39.0269886,85.3305076 L37.828125,85.3305076 L37.828125,84.6109645 Z M37.828125,83.1715228 L39.0269886,83.1715228 L39.0269886,84.3707614 L37.828125,84.3707614 L37.828125,83.1715228 Z M37.828125,82.2117766 L39.0269886,82.2117766 L39.0269886,82.9309645 L37.828125,82.9309645 L37.828125,82.2117766 Z M37.828125,76.4529442 L39.0269886,76.4529442 L39.0269886,81.9712183 L37.828125,81.9712183 L37.828125,76.4529442 Z M37.828125,70.6941117 L39.0269886,70.6941117 L39.0269886,76.2134518 L37.828125,76.2134518 L37.828125,70.6941117 Z M37.828125,69.7347208 L39.0269886,69.7347208 L39.0269886,70.454264 L37.828125,70.454264 L37.828125,69.7347208 Z M37.828125,68.2949239 L39.0269886,68.2949239 L39.0269886,69.4941624 L37.828125,69.4941624 L37.828125,68.2949239 Z M37.828125,67.3358883 L39.0269886,67.3358883 L39.0269886,68.0547208 L37.828125,68.0547208 L37.828125,67.3358883 Z M39.2666903,84.6109645 L39.9861506,84.6109645 L39.9861506,85.3305076 L39.2666903,85.3305076 L39.2666903,84.6109645 Z M39.2666903,83.1715228 L39.9861506,83.1715228 L39.9861506,84.3707614 L39.2666903,84.3707614 L39.2666903,83.1715228 Z M39.2666903,82.2117766 L39.9861506,82.2117766 L39.9861506,82.9309645 L39.2666903,82.9309645 L39.2666903,82.2117766 Z M39.2666903,76.4529442 L39.9861506,76.4529442 L39.9861506,81.9712183 L39.2666903,81.9712183 L39.2666903,76.4529442 Z M39.2666903,70.6941117 L39.9861506,70.6941117 L39.9861506,76.2134518 L39.2666903,76.2134518 L39.2666903,70.6941117 Z M39.2666903,69.7347208 L39.9861506,69.7347208 L39.9861506,70.454264 L39.2666903,70.454264 L39.2666903,69.7347208 Z M39.2666903,68.2949239 L39.9861506,68.2949239 L39.9861506,69.4941624 L39.2666903,69.4941624 L39.2666903,68.2949239 Z M45.981179,85.5703553 L51.496804,85.5703553 L51.496804,86.7710152 L45.981179,86.7710152 L45.981179,85.5703553 Z M45.981179,84.6109645 L51.496804,84.6109645 L51.496804,85.3305076 L45.981179,85.3305076 L45.981179,84.6109645 Z M45.981179,83.1715228 L51.496804,83.1715228 L51.496804,84.3707614 L45.981179,84.3707614 L45.981179,83.1715228 Z M45.981179,82.2117766 L51.496804,82.2117766 L51.496804,82.9309645 L45.981179,82.9309645 L45.981179,82.2117766 Z M52.456321,90.6092893 L52.4556108,90.6092893 L52.4556108,93.4888832 L51.7361506,93.4888832 L51.7361506,90.8487817 L51.7365057,90.8487817 L51.7365057,87.9702538 L52.456321,87.9702538 L52.456321,90.6092893 L52.456321,90.6092893 Z M51.7365057,87.0105076 L52.4559659,87.0105076 L52.4559659,87.7296954 L51.7365057,87.7296954 L51.7365057,87.0105076 Z M51.7365057,85.5703553 L52.4559659,85.5703553 L52.4559659,86.7710152 L51.7365057,86.7710152 L51.7365057,85.5703553 Z M51.7365057,84.6109645 L52.4559659,84.6109645 L52.4559659,85.3305076 L51.7365057,85.3305076 L51.7365057,84.6109645 Z M51.7365057,83.1715228 L52.4559659,83.1715228 L52.4559659,84.3707614 L51.7365057,84.3707614 L51.7365057,83.1715228 Z M51.7365057,82.2117766 L52.4559659,82.2117766 L52.4559659,82.9309645 L51.7365057,82.9309645 L51.7365057,82.2117766 Z M51.7365057,76.4529442 L52.4559659,76.4529442 L52.4559659,81.9712183 L51.7365057,81.9712183 L51.7365057,76.4529442 Z M52.6956676,76.4529442 L53.8941761,76.4529442 L53.8941761,81.9712183 L52.6956676,81.9712183 L52.6956676,76.4529442 Z M52.6956676,82.2117766 L53.8941761,82.2117766 L53.8941761,82.9309645 L52.6956676,82.9309645 L52.6956676,82.2117766 Z M52.6956676,83.1715228 L53.8941761,83.1715228 L53.8941761,84.3707614 L52.6956676,84.3707614 L52.6956676,83.1715228 Z M52.6956676,84.6109645 L53.8941761,84.6109645 L53.8941761,85.3305076 L52.6956676,85.3305076 L52.6956676,84.6109645 Z M52.6956676,85.5703553 L53.8941761,85.5703553 L53.8941761,86.7710152 L52.6956676,86.7710152 L52.6956676,85.5703553 Z M52.6956676,87.0105076 L53.8941761,87.0105076 L53.8941761,87.7296954 L52.6956676,87.7296954 L52.6956676,87.0105076 Z M53.8952415,93.4888832 L52.6956676,93.4888832 L52.6956676,87.9702538 L53.8941761,87.9702538 L53.8941761,90.8487817 L53.8952415,90.8487817 L53.8952415,93.4888832 L53.8952415,93.4888832 Z" id="Fill-10" fill="#000000"></path>
                <path d="M57.8927557,70.2360914 L35.6768466,57.2196447 L28.0557528,21.7722843 L58.6800426,0.58893401 L87.8955966,21.207665 L83.8022017,26.4331472" id="Fill-11" fill="#000000"></path>
                <path d="M89.128196,56.5331472 C85.1679688,55.0240609 82.3533381,51.1914721 82.3533381,46.6990355 C82.3533381,45.881066 82.449929,45.0865482 82.6264205,44.3222335 C82.6246449,44.2063959 82.6235795,44.1005076 82.6239347,44.0145178 C82.6612216,43.9804061 82.6921165,43.9537563 82.7258523,43.924264 C83.1953125,42.2037563 84.0894886,40.6591371 85.2897727,39.409797 L83.1917614,22.3372589 L77.4019886,16.939797 L75.7013494,15.1873096 L71.5951705,14.0356853 C62.2020597,18.1731472 62.0259233,32.435736 62.0259233,32.435736 L40.8987926,53.6894416 L65.884233,76.9326396 L78.1569602,63.4340102 L77.2112926,62.7404061 L79.7453835,58.904264 L89.128196,56.5331472" id="Fill-12" fill="#FFFFFF"></path>
                <path d="M49.977983,82.6111675 L32.0227273,55.9504061 L44.9620028,45.560203 L58.346946,57.5241624 L59.1473722,60.0548223" id="Fill-13" fill="#619210"></path>
                <path d="M77.9538352,46.1404569 L64.6850142,42.4610152 L63.7681108,43.7856853 L76.9517045,48.2152284" id="Fill-14" fill="#A4C921"></path>
                <path d="M83.2194602,56.3370051 L77.1111506,57.8084264 C77.7173295,56.5974619 78.9051847,55.7087817 80.3515625,55.5552792 C81.4144176,55.4429949 82.421875,55.7492893 83.2194602,56.3370051" id="Fill-15" fill="#000000"></path>
                <path d="M76.899858,40.4615736 L75.9723011,48.5908122 L79.7773437,49.8191878 L80.1278409,42.4379188" id="Fill-16" fill="#CEE7A2"></path>
                <path d="M76.7982955,50.2804061 L77.4364347,48.4703553 L77.8899148,48.6295431 L77.2510653,50.4395939 L76.7982955,50.2804061 L76.7982955,50.2804061 Z M75.893821,49.9602538 L76.5323153,48.1505584 L76.9850852,48.3101015 L76.3462358,50.1205076 L75.893821,49.9602538 L75.893821,49.9602538 Z M74.9889915,49.6401015 L75.6278409,47.8304061 L76.0799006,47.9903046 L75.4417614,49.8007107 L74.9889915,49.6401015 L74.9889915,49.6401015 Z M74.0855824,49.3217259 L74.7230114,47.5113198 L75.1757812,47.6708629 L74.5372869,49.481269 L74.0855824,49.3217259 L74.0855824,49.3217259 Z M73.1800426,49.0022843 L73.8185369,47.1922335 L74.2713068,47.351066 L73.6324574,49.1625381 L73.1800426,49.0022843 L73.1800426,49.0022843 Z M72.2762784,48.683198 L72.9151278,46.8727919 L73.3664773,47.032335 L72.7276278,48.8420305 L72.2762784,48.683198 L72.2762784,48.683198 Z M71.3710937,48.3630457 L72.009233,46.5529949 L72.462358,46.7132487 L71.8238636,48.5232995 L71.3710937,48.3630457 L71.3710937,48.3630457 Z M70.4673295,48.0439594 L71.1058239,46.2328426 L71.5578835,46.3930964 L70.9190341,48.2031472 L70.4673295,48.0439594 L70.4673295,48.0439594 Z M69.5625,47.7238071 L70.2013494,45.9141117 L70.653054,46.0740102 L70.0138494,47.8840609 L69.5625,47.7238071 L69.5625,47.7238071 Z M68.6580256,47.4050761 L69.2965199,45.5950254 L69.7485795,45.7545685 L69.1097301,47.5653299 L68.6580256,47.4050761 L68.6580256,47.4050761 Z M67.7535511,47.0863452 L68.3924006,45.2759391 L68.8441051,45.4347716 L68.2052557,47.2451777 L67.7535511,47.0863452 L67.7535511,47.0863452 Z M66.8490767,46.7658376 L67.4879261,44.9557868 L67.9392756,45.1160406 L67.3004261,46.9260914 L66.8490767,46.7658376 L66.8490767,46.7658376 Z M65.943892,46.4471066 L66.5827415,44.6363452 L67.0340909,44.7958883 L66.397017,46.6062944 L65.943892,46.4471066 L65.943892,46.4471066 Z M65.0397727,46.1280203 L65.678267,44.3169036 L66.1306818,44.476802 L65.4925426,46.2872081 L65.0397727,46.1280203 L65.0397727,46.1280203 Z" id="Fill-17" fill="#000000"></path>
                <path d="M64.7425426,44.2987817 L64.9108665,43.8496447 L78.346946,48.7482234 L78.1182528,49.3060914 L64.7425426,44.2987817" id="Fill-18" fill="#000000"></path>
                <path d="M75.0806108,55.6537056 L76.8558239,41.6675635 L80.1278409,42.4379188 L81.3742898,53.5092893 C80.6164773,53.1727919 79.7649148,53.0207107 78.8810369,53.1134518 C77.2116477,53.2882741 75.8267045,54.282132 75.0806108,55.6537056" id="Fill-19" fill="#CEE7A2"></path>
                <path d="M37.3004261,38.4806091 C37.6548295,44.69 40.6516335,49.5171574 43.9985795,49.2630964 C47.3419744,49.0090355 49.7627841,43.7700508 49.4101563,37.5606599 C49.0546875,31.3519797 46.056108,26.523401 42.712358,26.7785279 C39.3675426,27.0322335 36.9453125,32.2712183 37.3004261,38.4806091" id="Fill-20" fill="#FFFFFF"></path>
                <path d="M71.5951705,14.0356853 L74.756392,15.747665 L57.4911222,64.9356345 L40.8987926,53.6894416 L62.0259233,32.435736 C62.0259233,32.435736 62.2020597,18.1731472 71.5951705,14.0356853" id="Fill-21" fill="#CEE7A2"></path>
                <path d="M73.8458807,61.8705584 C71.6328125,61.8705584 70.1178977,62.4536548 70.100142,62.4604061 L70.2723722,62.9081218 C70.2734375,62.9070558 70.6242898,62.7716751 71.2542614,62.6313198 C71.8838778,62.4920305 72.78125,62.3506091 73.8458807,62.3506091 C74.9158381,62.3506091 76.1541193,62.4959391 77.4598722,62.9226904 L77.2112926,62.7404061 L77.4300426,62.4095939 C76.1345881,62.0080711 74.9087358,61.8705584 73.8458807,61.8705584" id="Fill-22" fill="#619210"></path>
                <path d="M83.5923295,24.2382741 C81.022017,25.1823858 75.5088778,23.9497462 75.5088778,23.9497462 L78.684304,20.8686802 L73.3916903,22.1201523 L76.0859375,18.1717259 L70.6970881,13.2607107 C70.6970881,13.2607107 68.4836648,16.5347208 70.4083807,18.3643147 C70.4083807,18.3646701 67.8100142,18.268731 67.3291903,15.7647208 L67.5213068,20.675736 L64.3458807,17.4980203 L69.0607244,10.565533 L84.1693892,20.0986802" id="Fill-23" fill="#000000"></path>
                <path d="M52.0490057,36.601269 L53.4602273,40.696802 L65.7393466,30.8108122 L63.3401989,22.1965482" id="Fill-24" fill="#000000"></path>
                <path d="M40.0276989,38.8028934 C40.5767045,41.7272589 44.2752131,43.6232995 48.2872869,43.0384264 C48.5294744,43.0032487 48.7670455,42.9591878 48.9989347,42.907665 C49.3636364,41.2958883 49.5191761,39.474467 49.4101562,37.5606599 C49.3018466,35.6663959 48.9456676,33.9014721 48.4108665,32.3692893 C47.7269176,32.3227411 47.018821,32.3447716 46.2997159,32.4495939 C42.2858665,33.0341117 39.4786932,35.8799492 40.0276989,38.8028934" id="Fill-25" fill="#A4C921"></path>
                <path d="M82.8295455,41.1054315 L80.1147017,45.044264 L70.4541903,37.3026904 L63.8053977,38.5264467 L70.4541903,33.3485787 L82.8295455,41.1054315" id="Fill-26" fill="#000000"></path>
                <path d="M76.7713068,37.3080203 L76.3263494,37.0290863 L73.9740767,40.1236548 L74.3824574,40.450203 L76.7713068,37.3080203" id="Fill-27" fill="#619210"></path>
                <path d="M78.1044034,38.1437563 L77.6598011,37.8648223 L75.1977983,41.1040102 L75.6054687,41.4309137 L78.1044034,38.1437563" id="Fill-28" fill="#619210"></path>
                <path d="M72.7510653,39.1432995 L73.1590909,39.4698477 L75.4378551,36.4726396 L74.9928977,36.1937056 L72.7510653,39.1432995" id="Fill-29" fill="#619210"></path>
                <path d="M79.4371449,38.9791371 L78.9932528,38.7009137 L76.4211648,42.0847208 L76.8288352,42.411269 L79.4371449,38.9791371" id="Fill-30" fill="#619210"></path>
                <path d="M82.102983,40.6506091 L81.6590909,40.3720305 L78.8678977,44.0447208 L79.2752131,44.371269 L82.102983,40.6506091" id="Fill-31" fill="#619210"></path>
                <path d="M80.7702415,39.8148731 L80.3259943,39.5362944 L77.6441761,43.0643655 L78.0525568,43.391269 L80.7702415,39.8148731" id="Fill-32" fill="#619210"></path>
                <path d="M64.3458807,17.4980203 C59.9300426,23.3272081 65.4048295,31.8235025 65.4048295,31.8235025 L67.2823153,30.4963452" id="Fill-33" fill="#CEE7A2"></path>
                <path d="M87.8955966,21.207665 C87.8955966,21.207665 76.4350142,14.307868 79.3128551,7.10959391 L73.7972301,11.9086802 L73.7972301,6.39005076 L69.0607244,10.565533" id="Fill-34" fill="#000000"></path>
                <path d="M63.8117898,46.5224365 L56.2002841,67.9239594 L61.2283381,72.6015228 C65.3288352,69.1679695 67.9385653,64.0117766 67.9385653,58.2437056 C67.9385653,53.8052792 66.3920455,49.7307107 63.8117898,46.5224365" id="Fill-35" fill="#CEE7A2"></path>
                <path d="M63.8117898,46.5224365 C61.4009233,43.5252284 58.0880682,41.2894924 54.2840909,40.2238579 L40.8987926,53.6894416 L56.2002841,67.9239594 L63.8117898,46.5224365" id="Fill-36" fill="#A8CD25"></path>
                <path d="M48.6139915,82.9903046 C48.6139915,83.608934 48.1129261,84.1095939 47.4946733,84.1095939 C46.8767756,84.1095939 46.3760653,83.608934 46.3760653,82.9903046 C46.3760653,82.3720305 46.8767756,81.8703046 47.4946733,81.8703046 C48.1129261,81.8703046 48.6139915,82.3720305 48.6139915,82.9903046" id="Fill-37" fill="#FFFFFF"></path>
                <path d="M53.8213778,92.2292386 C53.8213778,92.847868 53.3199574,93.3488832 52.7020597,93.3488832 C52.0838068,93.3488832 51.5830966,92.847868 51.5830966,92.2292386 C51.5830966,91.6109645 52.0838068,91.1095939 52.7020597,91.1095939 C53.3199574,91.1095939 53.8213778,91.6109645 53.8213778,92.2292386" id="Fill-38" fill="#FFFFFF"></path>
                <path d="M27.8742898,22.1947716 L27.9552557,21.7196954 C30.4353693,22.1482234 32.8110795,22.3408122 35.0816761,22.3408122 C50.4335938,22.3436548 60.9580966,13.5115736 65.2581676,9.09340102 C66.690696,7.6219797 67.4240057,6.65228426 67.425071,6.64944162 L67.4261364,6.65050761 L67.8100142,6.94045685 C67.7911932,6.96035533 55.8139205,22.815533 35.0816761,22.8237056 C32.7848011,22.8237056 30.3796165,22.6282741 27.8742898,22.1947716" id="Fill-41" fill="#619210"></path>
                <path d="M28.6946023,25.6620812 L28.8288352,25.1983756 C31.7340199,26.0458376 34.5667614,26.4164467 37.2993608,26.4164467 C51.4293324,26.4239086 62.9442472,16.4913706 67.8082386,11.5160406 C69.4293324,9.86020305 70.3046875,8.76436548 70.3082386,8.76187817 L70.6839489,9.0635533 C70.6637074,9.07563452 56.4513494,26.8826396 37.2993608,26.8986294 C34.5230824,26.8986294 31.6445313,26.521269 28.6946023,25.6620812" id="Fill-42" fill="#619210"></path>
                <path d="M68.5610795,74.0260406 L74.1541193,76.3893401 L66.199929,82.9071574 L68.1377841,86.0937563 L73.8387784,80.7289848 L76.6349432,84.6777665 L70.1558949,89.4107614 L73.3178267,94.6085279 L75.928267,93.0123858 L73.3167614,90.9219797 L77.2340199,89.0923858 L81.6321023,95.7743655 L89.2453835,95.7743655 L85.5923295,89.0923858 L76.1896307,72.8886294 L67.149858,70.7779695 L60.0110085,77.4585279 L63.1040483,79.9341117 L68.5610795,74.0260406" id="Fill-43" fill="#CEE7A2"></path>
                <path d="M77.2340199,89.0923858 L80.03125,83.7471574 L76.8558239,83.0727411 L78.1065341,79.7027919 L74.7389915,79.510203 L76.5152699,73.6532995 L66.199929,82.9071574 L73.8160511,95.4321827 L79.3661222,92.4783249 L77.2340199,89.0923858" id="Fill-44" fill="#FFFFFF"></path>
                <path d="M75.4939631,85.9651269 L70.0582386,89.2519289 L70.3071733,89.6619797 L75.7421875,86.376599 L75.4939631,85.9651269" id="Fill-45" fill="#000000"></path>
                <path d="M67.9129972,85.7252792 L73.4957386,81.8486294 L73.2230114,81.4549239 L67.6633523,85.3141624 L67.9129972,85.7252792" id="Fill-46" fill="#000000"></path>
                <path d="M77.1495028,88.898731 L74.3380682,90.9283756 L74.6189631,91.3181726 L77.0159801,89.5870051 L78.9698153,92.6893909 L79.3661222,92.4783249 L77.2340199,89.0923858 L77.2510653,89.0604061 L77.1495028,88.898731" id="Fill-47" fill="#000000"></path>
            </g>
        </g>
    </g>
</svg>