<?xml version="1.0" encoding="utf-8"?>
<!-- Generator: Adobe Illustrator 18.1.0, SVG Export Plug-In . SVG Version: 6.00 Build 0)  -->
<!DOCTYPE svg PUBLIC "-//W3C//DTD SVG 1.1//EN" "http://www.w3.org/Graphics/SVG/1.1/DTD/svg11.dtd">
<svg version="1.1" id="Layer_1" xmlns="http://www.w3.org/2000/svg" xmlns:xlink="http://www.w3.org/1999/xlink" x="0px" y="0px"
	 width="829px" height="552px" viewBox="941 -277 829 552" enable-background="new 941 -277 829 552" xml:space="preserve">
<path fill="none" stroke="#070909" stroke-width="1.924" d="M1242.6-136.2"/>
<path d="M1135.1,224.2c0,0-9.4,10.3,5.8,19.2l-7.5,4.7c0,0-11.2-6.9-9.4-18.2l-3.6,2.5l-4.8-5.8l20.6-20.6l8.8,9.8L1135.1,224.2"/>
<path fill="#CEE7A2" d="M999.2,109.8l43.1,17.9l25.3-47L1027.2,61"/>
<path fill="#CEE7A2" d="M1684.1,276L1770-15.5l-355.1-77.1L1132.7,276H1684.1z"/>
<path fill="#619210" d="M1544.7-194.6c0-2.7,8.4-42.4,8.4-42.4l33,2l-7.5,44.1"/>
<path d="M1575.3-199.9l4.2-27.8l2,0.1l-4.1,27.8L1575.3-199.9z M1568-201l4.1-27.8l2,0.1l-4.1,27.8L1568-201z M1560.4-202.1
	l4.1-27.8l2,0.1l-4.1,27.8L1560.4-202.1z M1553-203.2l4.2-27.8l2,0.1l-4.1,27.8L1553-203.2z M1056,62.7c0,27.3,5.2,53.4,14.6,77.2
	l37.9-15.4l53.9-41.5l19-6.7l49.7,16.7l32.6-241.8C1148.4-146.6,1056-52.8,1056,62.7L1056,62.7z"/>
<path fill="#CEE7A2" d="M1679.9,272.7l-90.5-460.2l-73.2,4.6l-262,455.6L1679.9,272.7z"/>
<path d="M1170.1,113l18,67l-57,47.6l10.4-23.6l-22.9-114.4"/>
<path d="M1066.9,21.8c-2.2,58.8,23.4,132.5,94.7,229.2l15.1,10.3l11.9-0.1l-4.3-10.4l-18-7.7l-21.9-153l-53.4-90.5
	C1091-0.4,1068.7-27.9,1066.9,21.8L1066.9,21.8z M1158.3-96.7l-28.9-94.3l73.5-59.7c0,0,26.7,15.9,52.6,2.5l-5.2,17.5l27.6-10.3
	l7.5,53.9"/>
<path fill="#FFFFFF" d="M1679.9,276l-63.8-324.9l-155.7-34L1254.3,276H1679.9z"/>
<path d="M1495.3,234.9l0.1-1l2.2,0.7l0.1-0.4l1,0.4l-0.4,1.1L1495.3,234.9z M1488.4,232.7l0.1-1l3.5,1l-0.1,1L1488.4,232.7z
	 M1481.5,230.9l0.1-1l3.5,1l-0.1,1L1481.5,230.9z M1499.3,230.9l1.1-3.5l1,0.4l-1.1,3.5L1499.3,230.9z M1474.4,228.8l0.1-1l3.5,1
	l-0.1,1L1474.4,228.8z M1467.6,226.8l0.1-1l3.5,1l-0.1,1L1467.6,226.8z M1460.6,224.8l0.1-1l3.6,1l-0.1,1L1460.6,224.8z
	 M1501.7,224.1l1.1-3.5l1,0.4l-1.1,3.5L1501.7,224.1z M1453.7,223l0.1-1l3.6,1l-0.1,1L1453.7,223z M1446.6,220.9l0.1-1l3.6,1l-0.1,1
	L1446.6,220.9z M1439.7,219l0.1-1l3.6,1l-0.1,1L1439.7,219z M1432.7,216.9l0.1-1l3.6,1l-0.1,1L1432.7,216.9z M1504.1,217.2l1.1-3.5
	l1,0.4l-1.1,3.5L1504.1,217.2z M1425.9,215.1l0.1-1l3.6,1l-0.1,1L1425.9,215.1z M1418.9,213.1l0.1-1l3.6,1l-0.1,1L1418.9,213.1z
	 M1411.9,211.1l0.1-1l3.6,1l-0.1,1L1411.9,211.1z M1506.4,210.5l1.1-3.5l1,0.4l-1.1,3.5L1506.4,210.5z M1405,209l0.1-1l3.6,1l-0.1,1
	L1405,209z M1397.9,207l0.1-1l3.6,1l-0.1,1L1397.9,207z M1391,205.1l0.1-1l3.6,1l-0.1,1L1391,205.1z M1384.1,203l0.1-1l3.6,1l-0.1,1
	L1384.1,203z M1508.9,203.6l1.1-3.5l1,0.4l-1.1,3.5L1508.9,203.6z M1377.2,201.2l0.1-1l3.5,1l-0.1,1L1377.2,201.2z M1370.2,199.1
	l0.1-1l3.6,1l-0.1,1L1370.2,199.1z M1363.2,197.2l0.1-1l3.5,1l-0.1,1L1363.2,197.2z M1511.2,196.8l1.1-3.5l1,0.4l-1.1,3.5
	L1511.2,196.8z M1356,195.2l0.1-1l3.5,1l-0.1,1L1356,195.2z M1349.1,193.2l0.1-1l3.6,1l-0.1,1L1349.1,193.2z M1342.3,191.2l0.1-1
	l3.6,1l-0.1,1L1342.3,191.2z M1513.7,189.9l1.1-3.5l1,0.4l-1.1,3.5L1513.7,189.9z M1335.3,189.4l0.1-1l3.5,1l-0.1,1L1335.3,189.4z
	 M1328.4,187.3l0.1-1l3.5,1l-0.1,1L1328.4,187.3z M1321.3,185.3l0.1-1l3.6,1l-0.1,1L1321.3,185.3z M1314.4,183.3l0.1-1l3.5,1l-0.1,1
	L1314.4,183.3z M1516.3,183.2l1.1-3.5l1,0.4l-1.1,3.5L1516.3,183.2z M1307.3,181.5l0.1-1l3.5,1l-0.1,1L1307.3,181.5z M1300.4,179.5
	l0.1-1l3.5,1l-0.1,1L1300.4,179.5z M1293.5,177.5l0.1-1l3.6,1l-0.1,1L1293.5,177.5z M1518.5,176.4l1.1-3.5l1,0.4l-1.1,3.5
	L1518.5,176.4z M1286.6,175.4l0.1-1l3.6,1l-0.1,1L1286.6,175.4z M1279.7,173.6l0.1-1l3.6,1l-0.1,1L1279.7,173.6z M1277.1,172l2-3.1
	l0.7,0.5l-2,3.1L1277.1,172z M1521.1,169.6l1.1-3.5l1,0.4l-1.1,3.5L1521.1,169.6z M1280.9,166l2-3.1l0.7,0.5l-2,3.1L1280.9,166z
	 M1523.6,162.6l1.1-3.5l1,0.4l-1.1,3.5L1523.6,162.6z M1284.6,159.8l2-3.1l0.7,0.5l-2,3.1L1284.6,159.8z M1526.1,155.9l1.1-3.5
	l1,0.4l-1.1,3.5L1526.1,155.9z M1288.7,153.8l2-3.1l0.7,0.5l-2,3.1L1288.7,153.8z M1528.4,149.1l1.1-3.5l1,0.4l-1.1,3.5
	L1528.4,149.1z M1292.6,147.9l2-3.1l0.7,0.5l-2,3.1L1292.6,147.9z M1530.9,142.3l1.1-3.5l1,0.4l-1.1,3.5L1530.9,142.3z
	 M1296.5,141.7l2-3.1l0.7,0.5l-2,3.1L1296.5,141.7z M1300.4,135.6l2-3.1l0.7,0.5l-2,3.1L1300.4,135.6z M1533.4,135.5l1.1-3.5l1,0.4
	l-1.1,3.5L1533.4,135.5z M1304.5,129.4l2-3.1l0.7,0.5l-2,3.1L1304.5,129.4z M1535.7,128.7l1.1-3.5l1,0.4l-1.1,3.5L1535.7,128.7z
	 M1308.2,123.3l2-3.1l0.7,0.5l-2,3.1L1308.2,123.3z M1538.2,121.9l1.1-3.5l1,0.4l-1.1,3.5L1538.2,121.9z M1312,117.3l2-3.1l0.7,0.5
	l-2,3.1L1312,117.3z M1540.7,115l1.1-3.5l1,0.4l-1.1,3.5L1540.7,115z M1316.1,111.2l2-3.1l0.7,0.5l-2,3.1L1316.1,111.2z
	 M1542.9,108.2l1.1-3.5l1,0.4l-1.1,3.5L1542.9,108.2z M1320.1,105.1l2-3.1l0.7,0.5l-2,3.1L1320.1,105.1z M1545.3,101.4l1.1-3.5
	l1,0.4l-1.1,3.5L1545.3,101.4z M1323.9,99.2l2-3.1l0.7,0.5l-2,3.1L1323.9,99.2z M1547.8,94.6l1.1-3.5l1,0.4l-1.1,3.5L1547.8,94.6z
	 M1327.9,93l2-3.1l0.7,0.5l-2,3.1L1327.9,93z M1550.2,87.9l1.1-3.5l1,0.4l-1.1,3.5L1550.2,87.9z M1331.7,86.9l2-3.1l0.7,0.5l-2,3.1
	L1331.7,86.9z M1335.6,80.9l2-3.1l0.7,0.5l-2,3.1L1335.6,80.9z M1552.6,80.9l1.1-3.5l1,0.4l-1.1,3.5L1552.6,80.9z M1339.5,74.7
	l2-3.1l0.7,0.5l-2,3.1L1339.5,74.7z M1555.1,74.1l1.1-3.5l1,0.4l-1.1,3.5L1555.1,74.1z M1343.6,68.8l2-3.1l0.7,0.5l-2,3.1
	L1343.6,68.8z M1557.6,67.3l1.1-3.5l1,0.4l-1.1,3.5L1557.6,67.3z M1347.5,62.7l2-3.1l0.7,0.5l-2,3.1L1347.5,62.7z M1559.9,60.6
	l1.1-3.5l1,0.4l-1.1,3.5L1559.9,60.6z M1351.3,56.4l2-3.1l0.7,0.5l-2,3.1L1351.3,56.4z M1562.4,53.7l1.1-3.5l1,0.4l-1.1,3.5
	L1562.4,53.7z M1355.2,50.5l2-3.1l0.7,0.5l-2,3.1L1355.2,50.5z M1564.9,46.9l1.1-3.5l1,0.4l-1.1,3.5L1564.9,46.9z M1359.1,44.4
	l2-3.1l0.7,0.5l-2,3.1L1359.1,44.4z M1567.2,40.2l1.1-3.5l1,0.4l-1.1,3.5L1567.2,40.2z M1363.1,38.2l2-3.1l0.7,0.5l-2,3.1
	L1363.1,38.2z M1569.7,33.4l1.1-3.5l1,0.4l-1.1,3.5L1569.7,33.4z M1366.9,32.2l2-3.1l0.7,0.5l-2,3.1L1366.9,32.2z M1572.2,26.4
	l1.1-3.5l1,0.4l-1.1,3.5L1572.2,26.4z M1371,26l2-3.1l0.7,0.5l-2,3.1L1371,26z M1374.9,20.1l2-3.1l0.7,0.5l-2,3.1L1374.9,20.1z
	 M1574.8,19.6l1.1-3.5l1,0.4l-1.1,3.5L1574.8,19.6z M1378.6,14l2-3.1l0.7,0.5l-2,3.1L1378.6,14z M1576.9,12.9l1.1-3.5l1,0.4
	l-1.1,3.5L1576.9,12.9z M1382.6,7.7l2-3.1l0.7,0.5l-2,3.1L1382.6,7.7z M1579.5,6.1l0.7-2.5l0.1-1l1.1,0.1l-1.1,3.5L1579.5,6.1z
	 M1573.2,2.2l0.1-1l3.6,0.7l-0.1,1L1573.2,2.2z M1386.6,1.9l2-3.1l0.7,0.5l-2,3.1L1386.6,1.9z M1566,0.6l0.1-1l3.6,0.7l-0.1,1
	L1566,0.6z M1558.9-1l0.1-1l3.6,0.7l-0.1,1L1558.9-1z M1551.9-2.5l0.1-1l3.6,0.7l-0.1,1L1551.9-2.5z M1545-4l0.1-1l3.6,0.7l-0.1,1
	L1545-4z M1390.5-4.3l2-3.1l0.7,0.5l-2,3.1L1390.5-4.3z M1537.8-5.6l0.1-1l3.6,0.7l-0.1,1L1537.8-5.6z M1530.8-7l0.1-1l3.6,0.7
	l-0.1,1L1530.8-7z M1523.7-8.7l0.1-1l3.6,0.7l-0.1,1L1523.7-8.7z M1516.6-10.3l0.1-1l3.6,0.7l-0.1,1L1516.6-10.3z M1394.3-10.4
	l2-3.1l0.7,0.5l-2,3.1L1394.3-10.4z M1509.6-11.8l0.1-1l3.6,0.7l-0.1,1L1509.6-11.8z M1502.5-13.2l0.1-1l3.6,0.7l-0.1,1L1502.5-13.2
	z M1495.3-14.6l0.1-1l3.6,0.7l-0.1,1L1495.3-14.6z M1488.4-16.5l0.1-1l3.6,0.7l-0.1,1L1488.4-16.5z M1398.4-16.5l2-3.1l0.7,0.5
	l-2,3.1L1398.4-16.5z M1481.2-18l0.1-1l3.6,0.7l-0.1,1L1481.2-18z M1474.3-19.3l0.1-1l3.6,0.7l-0.1,1L1474.3-19.3z M1467.1-20.9
	l0.1-1l3.6,0.7l-0.1,1L1467.1-20.9z M1460-22.4l0.1-1l3.6,0.7l-0.1,1L1460-22.4z M1402.4-22.4l2-3.1l0.7,0.5l-2,3.1L1402.4-22.4z
	 M1453.2-24.2l0.1-1l3.6,0.7l-0.1,1L1453.2-24.2z M1446-25.6l0.1-1l3.6,0.7l-0.1,1L1446-25.6z M1439-27.1l0.1-1l3.6,0.7l-0.1,1
	L1439-27.1z M1431.9-28.6l0.1-1l3.6,0.7l-0.1,1L1431.9-28.6z M1406.1-28.6l2-3.1l0.7,0.5l-2,3.1L1406.1-28.6z M1424.7-30.1l0.1-1
	l3.6,0.7l-0.1,1L1424.7-30.1z M1417.7-31.8l0.1-1l3.6,0.7l-0.1,1L1417.7-31.8z M1410.7-33.3l0.1-1l3.6,0.7l-0.1,1L1410.7-33.3z"/>
<path fill="#A4C921" d="M1301.2-43.7l54.7,74l12-8l2.3,3.7l-10.4,7.2l21.9,0.4l0.6,4.2l-23,1.5l24,11.6l-2.5,5.6L1353.4,42
	l13.3,22.2l-4,2.8l-15.7-24.8l0.5,0.6l-9.9,16.3l-6.7-1.1l7-15L1282-16.5"/>
<path d="M1250.8-45.7l81.3,88.1l20.4-16.2l-82.1-124.8"/>
<path fill="#A4C921" d="M1180.6,83.7l28.9-99.6l5.3,20.4l26.1-62L1155-92.7l19.8,153.8"/>
<path d="M1188.1,57.8l-7.3,9.4l-2.3-1.9l11.7-14.7l0.6-2.5l-13.1,16.6l-2.6-2l0.4,1.5l1.7,1.4l-1.1,1.2l0.2,1.1l1.6-1.9l2.3,1.9
	l-2,2.1l-1.6-1.2l0.2,1.5l0.7,0.5l-0.4,0.6l0.1,1.2l1-1.2l4.6,3.6l0.4-1l-4.3-3.5l1.9-2.1l3.2,2.8l0.4-1.2l-3-2.2l5.7-7.7
	L1188.1,57.8z M1178.8,77.7l0.5,1.5l2.1,1.6l0.2-1L1178.8,77.7z M1158.8-63.9l6.7,5.2l-5.1,6.3l0.1,1.4l5.7-7.2l2.2,1.6l-7.3,9.4
	l0.1,1.4l7.9-10.3l3.7,3.1L1162-39.2l0.1,1.4l11.5-14.5l2.2,1.6l-13.1,16.6l0.1,2.1l3.2,2.6l-1.6,2.2l-1-0.7l0.1,1.4l0.1,0.1
	l-0.1,0.1l0.1,1.4l0.7-1l2.2,1.6l-2.5,3.2l0.4,2.2l16.4,13l-1.6,2.2l-14.1-11l0.1,1.4l13.3,10.5l-3.1,3.7l-9.6-7.5l0.1,1.4l8.8,6.9
	l-1.6,2.2l-6.7-5.2l0.1,1.4l5.8,4.7l-4.6,5.8l0.1,1.4l5.1-6.3l16.9,13.3l-13.5,17.1l-6.2-4.8l0.1,1.4l5.6,4.3l-4.3,5.6l0.1,1.4
	l4.8-6.1l2.2,1.6l-6.7,8.3l0.1,1.4l7.2-9l3.7,3.1l-9.9,12.6l0.1,1.4l10.5-13.3l2.2,1.6l-12.2,15.4l0.1,1.4l12.9-16.2l3.6,2.7l0.4-1
	l-3.2-2.6l6.2-7.9l0.7-2.5l-7.7,9.8l-2.2-1.6l12-15.2l1-3.2l-3.5-2.6l1.6-2.2l2.5,2.1l0.4-1l-2.2-1.6l3.1-3.7l0.7,0.5l0.4-1
	l-0.4-0.4l0.7-1.1l0.7-2.5l-2.2-1.6l3.1-3.7l0.7,0.5l0.4-1l-0.4-0.4l0.7-1l0.7-2.6l-17.3-13.2l13.3-16.9l16.9,13.3l-6.9,8.7l0.4,1.1
	l7.3-9.3l2.2,1.6l-8.7,10.9l0.4,1.1l9-11.5l0.4,0.1l0.4-1h-0.1l0.4-0.4l1.4-3.2l-2.5,3.2l-2.2-1.6l6.9-8.8l-0.7-0.5l-6.9,8.8
	l-16.9-13.3l6.9-8.8l0.2-0.9l-6.9,8.8L1185.3-44l6.9-8.8l-0.7-0.5l-6.9,8.8l-2.2-1.6l6.9-8.8l-0.7-0.5l-6.9,8.8l-3.7-3.1l6.9-8.8
	L1184-59l-6.9,8.8l-2.2-1.6l6.9-8.8l-0.7-0.5l-6.9,8.8l-3.7-3.1l6.9-8.8l-0.7-0.5l-6.9,8.8l-2.2-1.6l6.9-8.8l-0.7-0.5l-6.9,8.8
	l-7.3-5.8L1158.8-63.9L1158.8-63.9z M1165.2-26.9l1.6-2.2l2.2,1.6l-1.6,2.2L1165.2-26.9z M1169.9-26.5l16.9,13.3l-1.6,2.2
	l-16.9-13.3L1169.9-26.5z M1164.5-20.1l3.1-3.7l16.9,13.3l-3.1,3.7L1164.5-20.1z M1181.7-5.1l16.9,13.3l-1.6,2.2l-16.9-13.3
	L1181.7-5.1z M1179.3-2.3l16.9,13.3l-3.1,3.7l-16.9-13.3L1179.3-2.3z M1174,4.5l1.6-2.2l16.9,13.3l-1.6,2.2L1174,4.5z M1179.9,37.8
	l-2.2-1.6l13.3-16.9l2.2,1.6L1179.9,37.8L1179.9,37.8z M1197.9,24.3l-13.3,16.9l-3.7-3.1l13.3-16.9L1197.9,24.3L1197.9,24.3z
	 M1193.9,20.1l-2.2-1.6l1.6-2.2l2.2,1.6L1193.9,20.1z M1196.4,17.1l-2.2-1.6l3.1-3.7l2.2,1.6L1196.4,17.1z M1201.4,10.4l-1.6,2.2
	l-2.2-1.6l1.6-2.2L1201.4,10.4z M1199.1,7.4L1182.2-6l3.1-3.7l16.9,13.3L1199.1,7.4z M1204.4,0.9l-1.6,2.2l-16.9-13.3l1.6-2.2
	L1204.4,0.9z M1183.7-44.2l16.9,13.3l-13.3,16.9l-16.9-13.3L1183.7-44.2z M1180.8-46.6l2.2,1.6l-13.3,16.9l-2.2-1.6L1180.8-46.6z
	 M1176.4-50.1l3.7,3.1l-13.3,16.9l-3.7-3.1L1176.4-50.1z M1214.8,4.5l1.4-3.3l-1.7,2.1L1214.8,4.5z M1237.8-49.1l-49.7,30.3
	L1156-88.4l14.1-51.9"/>
<path d="M1286.5-131.4c-5.8,17.5-4.1,32.3,3.5,33.2c7.7,1,18.7-12.4,24.2-29.9c5.8-17.5,4.1-32.3-3.5-33.2S1292.3-149,1286.5-131.4z
	"/>
<path fill="#FFFFFF" d="M1224.2-239.8l-61.5,26.9l14.8,45.2l-22.6,82.2l84.5,52.6c35.3-19.3,59.4-57,59.4-100
	C1298.9-182,1267.8-223.8,1224.2-239.8z"/>
<path fill="#CEE7A2" d="M1261.1-83.7l-3.2-2.5l13.8-17.7c0,0,14.5,5.6,14.8,5.7c0.5,0.1,3.6,4,3.6,4l-5.6,4.8"/>
<path fill="#CEE7A2" d="M1164.5-120.7l-9.6,35.2l61.2,38.2C1212.4-79.6,1192.4-106.7,1164.5-120.7L1164.5-120.7z"/>
<path d="M1241.1-136.2l1.9-0.5l2.8,17.5l-1.7,0.4L1241.1-136.2z M1245.4-137.2l1.9-0.5l3,17.5l-1.9,0.4L1245.4-137.2z M1259.5-96.9
	c0,0-14.5-2-15.6,11.2"/>
<path fill="#A4C921" d="M1179.8-108.2c0,0,30.5,4.3,57.6-5.8l-1-12.9l-27.1-0.1l-19.5-6.7c0,0-1.1,3.2-2.5,6.2
	c-1.4,3.1-1.6,2.7-2.1,4.3c-0.4,1.5-4.6,9.6-4.6,9.6"/>
<path fill="#619210" d="M1298.8-138.3c0-1-0.1-2-0.1-2.7c0-0.5,0-1-0.1-1.4c0-1-0.1-2.1-0.4-3.1c0-0.4,0-0.7-0.1-1.1l-0.5-4
	c0-0.4-0.1-0.5-0.1-1l-0.5-3.2l-0.1-1.4l-0.5-2.6c-0.1-0.4-0.1-1-0.4-1.4c-0.1-1-0.5-2-0.7-2.7c0-0.4-0.1-0.7-0.1-1
	c-0.4-1.4-0.7-2.5-1.1-3.7c-0.1-0.4-0.4-1-0.4-1.4c-0.1-0.7-0.5-1.6-1-2.5l-0.5-1.5c-0.4-0.7-0.5-1.5-1-2.2l-0.5-1.5
	c-0.4-1-0.7-2-1.1-2.6c-0.1-0.5-0.5-1.1-0.7-1.6c-0.4-1-0.7-1.6-1.4-2.6c-0.1-0.5-0.5-1.1-0.7-1.5c-0.4-0.5-0.7-1.4-1-2
	c-0.4-0.5-0.5-1.1-1-1.6c-0.4-0.5-0.7-1.1-1.1-2c-0.4-0.5-0.5-1.1-1-1.5c-0.5-0.7-1-1.6-1.5-2.5c-0.4-0.7-1-1.5-1.5-2.1
	c-0.4-0.5-0.7-1.1-1.1-1.5l-1.1-1.6c-0.4-0.4-0.7-1-1-1.4l-1.4-1.6c-0.4-0.4-0.7-1-1-1.4c-1-1.4-2.1-2.5-3.1-3.6l-0.5-0.5
	c-0.5-0.5-1.1-1.1-1.5-1.6c-0.4-0.4-0.5-0.7-1-1.1l-1.6-1.6l-1-1l-1.6-1.6l-0.7-0.7c-1.4-1.1-2.5-2.2-3.7-3.5l-0.5-0.5
	c-0.5-0.5-1.4-1.1-2-1.5c-0.4-0.1-0.7-0.5-1-0.7c-0.5-0.5-1.4-1-2-1.5l-1-0.7l-2.1-1.5l-9.6,0.1l10.8,87v10.9
	c5.7,26,29,30.5,29,30.5l-29.7,13.1l-17.7,47.2l6.1,3.7c1.5-0.7,3.1-1.6,4.6-2.6c13.3-8.2,24.8-18.8,33.7-31.5c0.5-1,1.1-1.6,2-2.6
	c0.1-0.1,0.1-0.4,0.4-0.4c0.5-0.7,1.1-1.6,1.5-2.5c0.1-0.1,0.4-0.4,0.4-0.7l1.4-2.2c0.1-0.4,0.4-0.5,0.5-1c0.4-0.7,0.7-1.5,1.4-2.2
	l0.5-1.1c0.4-0.7,0.7-1.5,1.1-2.1l0.5-1.1c0.4-0.7,0.7-1.4,1-2.1l0.5-1.4c0.4-0.7,0.5-1.4,1-2.1l0.5-1.4c0.1-0.7,0.5-1.4,0.7-2.1
	l0.5-1.5c0.1-0.5,0.5-1.4,0.7-2l0.5-1.5c0.1-0.5,0.4-1.4,0.5-2l0.5-1.6c0.1-0.5,0.4-1.4,0.5-2c0.1-0.5,0.4-1.1,0.4-1.6
	c0.1-0.5,0.4-1.4,0.5-2c0.1-0.5,0.4-1.4,0.4-2c0.1-0.5,0.1-1.4,0.4-2c0.1-0.5,0.1-1.4,0.4-2c0.1-0.5,0.1-1.1,0.4-2
	c0.1-0.7,0.1-1.4,0.4-2.1l0.1-1.6c0.1-0.7,0.1-1.5,0.1-2.1l0.1-1.6l0.1-2.2l0.1-1.6l0.1-2.6v-9.4
	C1298.8-137.7,1298.8-138.1,1298.8-138.3L1298.8-138.3z"/>
<path fill="#A4C921" d="M1272.6-141.4l-20.8,12v2.1c0.7,3.5,1.6,6.3,3.1,9c0.1,0.4,0.5,0.5,1.1,1.5c0,0,16.9-4,29-12L1272.6-141.4
	L1272.6-141.4z"/>
<path fill="#CEE7A2" d="M1298.3-145.6c0-0.4,0-0.7-0.1-1.1l-0.5-4c0-0.4-0.1-0.5-0.1-1l-0.5-3.2l-0.1-1.4l-0.5-2.6
	c-0.1-0.4-0.1-1-0.4-1.4c-0.1-1-0.5-2-0.7-2.7c0-0.4-0.1-0.7-0.1-1c-0.4-1.4-0.7-2.5-1.1-3.7c-0.1-0.4-0.4-1-0.4-1.4
	c-0.1-0.7-0.5-1.6-1-2.5l-0.5-1.5c-0.4-0.7-0.5-1.5-1-2.2l-0.5-1.5c-0.4-1-0.7-2-1.1-2.6c-0.1-0.5-0.5-1.1-0.7-1.6
	c-0.4-1-0.7-1.6-1.4-2.6c-0.1-0.5-0.5-1.1-0.7-1.5c-0.4-0.5-0.7-1.4-1-2c-0.4-0.5-0.5-1.1-1-1.6c-0.4-0.5-0.7-1.1-1.1-2
	c-0.4-0.5-0.5-1.1-1-1.5c-0.5-0.7-1-1.6-1.5-2.5c-0.4-0.7-1-1.5-1.5-2.1c-0.4-0.5-0.7-1.1-1.1-1.5l-1.1-1.6c-0.4-0.4-0.7-1-1-1.4
	l-1.4-1.6l-0.5-0.5c-4.3-5.1-8.7-9.8-12.9-13.8l-2.6-2.2l-0.4-0.4l-15.9,22.2l7.7,59.9l1.6,4.1l37.9-16.9L1298.3-145.6L1298.3-145.6
	z"/>
<path d="M1235.2-138.7l2,18.2l-46.3-8.5l-9.3,13.7l5.7-23.2L1235.2-138.7z M1288.4-157l-38.8,18.8l2.1,10.9c0,0,33.5-17.2,49.8-14.6
	"/>
<path d="M1635.1,105l0.4-1l3.5,1.1l-0.4,1L1635.1,105z M1640.7,105l1.1-3.5l1,0.4l-1.1,3.5L1640.7,105z M1628.1,102.8l0.4-1l3.5,1.1
	l-0.4,1L1628.1,102.8z M1621.3,100.4l0.4-1l3.5,1.1l-0.4,1L1621.3,100.4z M1614.5,98.2l0.4-1l3.5,1.1l-0.4,1L1614.5,98.2z
	 M1643.2,98.2l1.1-3.5l1,0.4l-1.1,3.5L1643.2,98.2z M1607.5,96.2l0.4-1l3.5,1.1l-0.4,1L1607.5,96.2z M1600.6,93.9l0.4-1l3.5,1.1
	l-0.4,1L1600.6,93.9z M1593.9,91.6l0.4-1l3.5,1.1l-0.4,1L1593.9,91.6z M1645.4,91.1l1.1-3.5l1,0.4l-1.1,3.5L1645.4,91.1z
	 M1586.9,89.4l0.4-1l3.5,1.1l-0.4,1L1586.9,89.4z M1579.9,87.1l0.4-1l3.5,1.1l-0.4,1L1579.9,87.1z M1573.2,85l0.4-1l3.5,1.1l-0.4,1
	L1573.2,85z M1647.8,84.5l1.1-3.5l1,0.4l-1.1,3.5L1647.8,84.5z M1566.1,82.7l0.4-1l3.5,1.1l-0.4,1L1566.1,82.7z M1559.4,80.6l0.4-1
	l3.5,1.1l-0.4,1L1559.4,80.6z M1552.5,78.3l0.4-1l3.5,1.1l-0.4,1L1552.5,78.3z M1650,77.5l1.1-3.5l1,0.4l-1.1,3.5L1650,77.5z
	 M1545.5,76.2l0.4-1l3.5,1.1l-0.4,1L1545.5,76.2z M1538.7,74l0.4-1l3.5,1.1l-0.4,1L1538.7,74z M1531.9,71.7l0.4-1l3.5,1.1l-0.4,1
	L1531.9,71.7z M1652.4,70.7l1.1-3.5l1,0.4l-1.1,3.5L1652.4,70.7z M1524.8,69.4l0.4-1l3.5,1.1l-0.4,1L1524.8,69.4z M1518,67.2l0.4-1
	l3.5,1.1l-0.4,1L1518,67.2z M1511.1,65.2l0.4-1l3.5,1.1l-0.4,1L1511.1,65.2z M1654.6,63.7l1.1-3.5l1,0.4l-1.1,3.5L1654.6,63.7z
	 M1504.1,63l0.4-1l3.5,1.1l-0.4,1L1504.1,63z M1497.4,60.6l0.4-1l3.5,1.1l-0.4,1L1497.4,60.6z M1490.5,58.4l0.4-1l3.5,1.1l-0.4,1
	L1490.5,58.4z M1483.7,56.3l0.1-0.5l0.4-0.5l0.7,0.4v0.1l2.2,0.7l-0.4,1L1483.7,56.3z M1656.7,56.9l1.1-3.5l1,0.4l-1.1,3.5
	L1656.7,56.9z M1485.9,52.1l1.5-3.2l0.7,0.4l-1.6,3.2L1485.9,52.1L1485.9,52.1z M1659,50.1l1.1-3.5l1,0.4l-1.1,3.5L1659,50.1z
	 M1489.1,45.4l1.5-3.2l1,0.4l-1.6,3.2L1489.1,45.4z M1661.3,43.1l1.1-3.5l1,0.4l-1.1,3.5L1661.3,43.1z M1492.5,38.9l1.6-3.2l0.7,0.4
	l-1.5,3.2L1492.5,38.9L1492.5,38.9z M1663.5,36.3l1.1-3.5l1,0.4l-1.1,3.5L1663.5,36.3z M1495.5,32.4l1.6-3.2l0.7,0.4l-1.6,3.2
	L1495.5,32.4z M1665.8,29.5l1.1-3.5l1,0.4l-1.1,3.5L1665.8,29.5z M1498.8,25.9l1.6-3.2l0.7,0.4l-1.6,3.2L1498.8,25.9z M1668.1,22.7
	l1.1-3.5l1,0.4L1669,23L1668.1,22.7z M1501.9,19.5l1.6-3.2l0.7,0.4l-1.5,3.1L1501.9,19.5L1501.9,19.5z M1670.5,15.6l1.1-3.5l1,0.4
	l-1.1,3.5L1670.5,15.6z M1505.1,12.9l1.5-3.2l0.7,0.4l-1.6,3.2L1505.1,12.9L1505.1,12.9z M1672.7,8.8l1.1-3.5l1,0.4l-1.1,3.5
	L1672.7,8.8z M1508.3,6.5l1.6-3.2l0.7,0.4l-1.6,3.2L1508.3,6.5z M1675,2l1.1-3.5l1,0.4l-1.1,3.5L1675,2z M1511.6-0.1l1.6-3.2
	l0.7,0.4l-1.5,3.2L1511.6-0.1L1511.6-0.1z M1677.3-4.8l0.7-2.5l0.1-1l1.1,0.1l-1.1,3.5L1677.3-4.8z M1514.7-6.4l1.5-3.2l0.7,0.4
	l-1.6,3.2L1514.7-6.4L1514.7-6.4z M1670.8-8.5l0.1-1l3.6,0.7l-0.1,1L1670.8-8.5z M1663.7-9.8l0.1-1l3.6,0.7l-0.1,1L1663.7-9.8z
	 M1656.6-11.1l0.1-1l3.6,0.7l-0.1,1L1656.6-11.1z M1649.4-12.5l0.1-1l3.6,0.7l-0.1,1L1649.4-12.5z M1517.9-13l1.6-3.2l0.7,0.4
	l-1.5,3.2L1517.9-13L1517.9-13z M1642.5-13.9l0.1-1l3.6,0.7l-0.1,1L1642.5-13.9z M1635.3-15.3l0.1-1l3.6,0.7l-0.1,1L1635.3-15.3z
	 M1628.1-16.6l0.1-1l3.6,0.7l-0.1,1L1628.1-16.6z M1621-18l0.1-1l3.6,0.7l-0.1,1L1621-18z M1613.8-19.2l0.1-1l3.6,0.7l-0.1,1
	L1613.8-19.2z M1521.1-19.3l1.6-3.2l0.7,0.4L1522-19L1521.1-19.3L1521.1-19.3z M1606.9-20.6l0.1-1l3.6,0.7l-0.1,1L1606.9-20.6z
	 M1599.8-21.8l0.1-1l3.6,0.7l-0.1,1L1599.8-21.8z M1592.7-23.3l0.1-1l3.6,0.7l-0.1,1L1592.7-23.3z M1585.6-24.5l0.1-1l3.6,0.7
	l-0.1,1L1585.6-24.5z M1578.5-25.9l0.1-1l3.6,0.7l-0.1,1L1578.5-25.9z M1524.2-26l1.5-3.2l0.7,0.4l-1.6,3.2L1524.2-26L1524.2-26z
	 M1571.3-27.1l0.1-1l3.6,0.7l-0.1,1L1571.3-27.1z M1564.1-28.5l0.1-1l3.6,0.7l-0.1,1L1564.1-28.5z M1557.2-29.7l0.1-1l3.6,0.7
	l-0.1,1L1557.2-29.7z M1550-31.1l0.1-1l3.6,0.7l-0.1,1L1550-31.1z M1542.9-32.6l0.1-1l3.6,0.7l-0.1,1L1542.9-32.6z M1527.4-32.3
	l1.6-3.6l3.2,0.5l-0.1,1l-2.5-0.4l-1.5,3.1L1527.4-32.3L1527.4-32.3z M1535.7-33.8l0.1-1l3.6,0.7l-0.1,1L1535.7-33.8z M1637,272.8
	l1-3.5l1,0.1l-1,3.5L1637,272.8z M1369.3,272.2l1.6-3.2l0.7,0.4l-1.6,3.2L1369.3,272.2z M1372.6,265.9l1.6-3.2l0.7,0.4l-1.6,3.2
	L1372.6,265.9z M1639.1,265.9l1-3.5l1,0.1l-1,3.5L1639.1,265.9z M1376.1,259.4l1.6-3.2l0.7,0.4l-1.6,3.2L1376.1,259.4z
	 M1641.1,258.8l1-3.5l1,0.1l-1,3.5L1641.1,258.8z M1379.6,253l1.6-3.2l0.7,0.4l-1.6,3.2L1379.6,253z M1643.2,251.9l1-3.5l1,0.1
	l-1,3.5L1643.2,251.9z M1383,246.7l1.6-3.2l0.7,0.4l-1.6,3.2L1383,246.7z M1645.2,245.2l1-3.5l1,0.1l-1,3.5L1645.2,245.2z
	 M1386.4,240.3l1.6-3.2l0.7,0.4l-1.6,3.2L1386.4,240.3z M1647.2,238.2l1-3.5l1,0.1l-1,3.5L1647.2,238.2z M1389.6,233.9l1.6-3.2
	l0.7,0.4l-1.6,3.2L1389.6,233.9z M1649.3,231.3l1-3.5l1,0.1l-1,3.5L1649.3,231.3z M1393.1,227.7l1.6-3.2l0.7,0.4l-1.6,3.2
	L1393.1,227.7z M1651.4,224.2l1-3.5l1,0.1l-1,3.5L1651.4,224.2z M1396.4,221.4l1.6-3.2l0.7,0.4l-1.6,3.2L1396.4,221.4z
	 M1653.5,217.3l1-3.5l1,0.1l-1,3.5L1653.5,217.3z M1399.9,214.8l1.6-3.2l0.7,0.4l-1.6,3.2L1399.9,214.8z M1655.4,210.5l1-3.5l1,0.1
	l-1,3.5L1655.4,210.5z M1403.2,208.5l1.6-3.2l0.7,0.4l-1.6,3.2L1403.2,208.5z M1657.3,203.5l1-3.5l1,0.1l-1,3.5L1657.3,203.5z
	 M1406.7,202.2l1.6-3.2l0.7,0.4l-1.6,3.2L1406.7,202.2z M1659.4,196.5l1-3.5l1,0.1l-1,3.5L1659.4,196.5z M1410.3,195.7l1.6-3.2
	l0.7,0.4l-1.6,3.2L1410.3,195.7z M1654.6,191.2l0.1-1l3.6,1l-0.1,1L1654.6,191.2z M1647.5,189.4l0.1-1l3.6,1l-0.1,1L1647.5,189.4z
	 M1413.5,189.4l1.6-3.2l0.7,0.4l-1.6,3.2L1413.5,189.4z M1640.6,187.4l0.1-1l3.6,1l-0.1,1L1640.6,187.4z M1633.7,185.7l0.1-1l3.6,1
	l-0.1,1L1633.7,185.7z M1626.7,183.7l0.1-1l3.6,1l-0.1,1L1626.7,183.7z M1417,183.1l1.6-3.2l0.7,0.4l-1.6,3.2L1417,183.1z
	 M1619.7,181.7l0.1-1l3.6,1l-0.1,1L1619.7,181.7z M1612.6,180l0.1-1l3.6,1l-0.1,1L1612.6,180z M1605.5,177.9l0.1-1l3.6,1l-0.1,1
	L1605.5,177.9z M1598.7,176l0.1-1l3.6,1l-0.1,1L1598.7,176z M1420.4,176.5l1.6-3.2l0.7,0.4l-1.6,3.2L1420.4,176.5z M1591.8,174.1
	l0.1-1l3.6,1l-0.1,1L1591.8,174.1z M1584.8,172.3l0.1-1l3.6,1l-0.1,1L1584.8,172.3z M1577.8,170.3l0.1-1l3.6,1l-0.1,1L1577.8,170.3z
	 M1423.8,170.2l1.6-3.2l0.7,0.4l-1.6,3.2L1423.8,170.2z M1570.8,168.5l0.1-1l3.6,1l-0.1,1L1570.8,168.5z M1564,166.6l0.1-1l3.6,1
	l-0.1,1L1564,166.6z M1556.8,164.7l0.1-1l3.6,1l-0.1,1L1556.8,164.7z M1427.2,163.8l1.6-3.2l0.7,0.4l-1.6,3.2L1427.2,163.8z
	 M1549.9,162.9l0.1-1l3.6,1l-0.1,1L1549.9,162.9z M1542.9,160.8l0.1-1l3.6,1l-0.1,1L1542.9,160.8z M1536,158.9l0.1-1l3.6,1l-0.1,1
	L1536,158.9z M1528.9,157l0.1-1l3.6,1l-0.1,1L1528.9,157z M1430.5,157.4l1.6-3.2l0.7,0.4l-1.6,3.2L1430.5,157.4z M1522,155.1l0.1-1
	l3.6,1l-0.1,1L1522,155.1z M1514.9,153.3l0.1-1l3.6,1l-0.1,1L1514.9,153.3z M1508,151.4l0.1-1l3.6,1l-0.1,1L1508,151.4z
	 M1433.9,151.1l1.6-3.2l0.7,0.4l-1.6,3.2L1433.9,151.1z M1501,149.5l0.1-1l3.6,1l-0.1,1L1501,149.5z M1494.1,147.6l0.1-1l3.6,1
	l-0.1,1L1494.1,147.6z M1487,145.8l0.1-1l3.6,1l-0.1,1L1487,145.8z M1437.2,144.5l1.6-3.2l0.7,0.4l-1.6,3.2L1437.2,144.5z
	 M1480.1,143.9l0.1-1l3.6,1l-0.1,1L1480.1,143.9z M1473.2,141.8l0.1-1l3.6,1l-0.1,1L1473.2,141.8z M1466.3,139.8l0.1-1l3.6,1l-0.1,1
	L1466.3,139.8z M1459.1,138.1l0.1-1l3.6,1l-0.1,1L1459.1,138.1z M1440.8,138.2l1.6-3.2l0.7,0.4l-1.6,3.2L1440.8,138.2z
	 M1452.2,136.1l0.1-1l3.6,1l-0.1,1L1452.2,136.1z M1445.1,134.4l0.1-1l3.6,1l-0.1,1L1445.1,134.4z"/>
<path fill="#A4C921" d="M1138.3,67l22.7-18.3l109.1,153.5l28.9,5.3l1.9,7.5l-27.3-3.6l7.2,34.4l-6.2,1l-10.6-25.5l-2.6,28.1
	l-4.4,0.7l0.2-28.5l-8.3,22.6l-5.9-0.1l8.4-24.1l-12,9.1l-2.6-3.6l16.7-17.4l-80.3-90.8"/>
<path fill="#619210" d="M1156-84.6l14.1,109.5L1146.6-3l10.5-26.7l-25.2,3.8L1156-84.6z"/>
<path fill="none" stroke="#070909" stroke-width="1.924" d="M1202.3-117.6"/>
<path d="M1282.9,142.3l56.3,3.8l0.1-5.8l-56.1-3.6"/>
<path fill="#619210" d="M1381.7,178.9l-51.3,38.6l95.3,31.5L1381.7,178.9z"/>
<path fill="#FFFFFF" d="M1380.6,200.1l-12.7,12.5l26.3,10L1380.6,200.1z M973.3,211.2l58.8,57.8l48.8-41.4l-58.8-56.3L973.3,211.2z"
	/>
<path fill="#CEE7A2" d="M1188.2-107.3c9.6,0.5,25.8,0.4,41.8-4.1C1205.4-122,1191.9-111.1,1188.2-107.3z"/>
<path d="M1197.9-107.1h2l0.1,5.7h-2L1197.9-107.1z M1194-101.5l0.1-5.7h2v5.7C1195.3-101.4,1194.8-101.5,1194-101.5L1194-101.5z
	 M1201.4-107.2h2l0.1,5.7h-2L1201.4-107.2z M1190.2-101.5l0.4-5.7h2l-0.1,5.7H1190.2z M1205.3-107.3c0.5,0,1.1,0,2-0.1l0.4,5.7
	c-0.5,0-1.4,0-2,0.1L1205.3-107.3z M1186.2-102l0.5-5.7c0,0,0.5,0,1.6,0.1l-0.4,5.7C1187-101.6,1186.2-102,1186.2-102z
	 M1208.9-107.6c0.5,0,1.1-0.1,2-0.1l0.5,5.7c-0.5,0-1.4,0.1-2,0.1L1208.9-107.6z M1212.6-107.9c0.5,0,1.1-0.1,2-0.1l0.7,5.7
	c-0.5,0-1.4,0.1-2,0.1L1212.6-107.9z M1216.2-108.6c0.5,0,1.1-0.1,2-0.4l1,5.7c-0.5,0.1-1.4,0.1-2,0.4L1216.2-108.6z M1220.8-103.6
	l-1.1-5.6c0.5-0.1,1.1-0.1,2-0.4l1.1,5.6C1222.2-103.7,1221.3-103.7,1220.8-103.6z M1223.4-109.8c0.5-0.1,1.1-0.1,1.6-0.4l1.4,5.6
	c-0.5,0.1-1.4,0.4-2,0.4L1223.4-109.8z M1226.9-110.8l1.6-0.5l1.5,5.6c-0.5,0.1-1.4,0.4-2,0.5L1226.9-110.8z M1255.6-117.1
	c0.5-0.1,1.1-0.4,1.6-0.4l1.5,5.6c-0.5,0.1-1.4,0.4-2,0.5L1255.6-117.1L1255.6-117.1z M1259.2-118.2l1.6-0.5l1.6,5.6
	c-0.5,0.1-1.4,0.4-2,0.5L1259.2-118.2z M1262.7-119.2l1.6-0.5l1.6,5.2c-0.5,0.1-1.4,0.4-2,0.5L1262.7-119.2z M1266.1-120.3l1.6-0.5
	l2,5.2c-0.5,0.1-1.1,0.4-2,0.5L1266.1-120.3z M1269.7-121.7c0.5-0.1,1.1-0.4,1.6-0.7l2.1,5.2c-0.5,0.1-1.1,0.4-2,0.7L1269.7-121.7z
	 M1273-122.9c0.5-0.1,1.1-0.5,1.6-0.7l2.2,5.2c-0.5,0.1-1.1,0.5-1.6,0.7L1273-122.9z M1276.3-124.4c0.5-0.1,1.1-0.5,1.6-0.7l2.5,5.1
	c-0.5,0.1-1.1,0.5-1.6,0.7L1276.3-124.4z M1282.3-120.8l-2.5-5.1c0.5-0.1,1.1-0.5,1.6-0.7l2.6,5.1
	C1283.4-121.5,1282.9-121.3,1282.3-120.8L1282.3-120.8z M1283-127.7c0.5-0.4,1.1-0.5,1.6-1l2.7,4.8c-0.5,0.4-1.1,0.5-1.6,1
	L1283-127.7z M1289.1-124.7l-2.7-4.8c0.1-0.1,0.4-0.1,0.5-0.4l2.7,4.8C1289.3-124.9,1289.2-124.7,1289.1-124.7z"/>
<path fill="#CEE7A2" d="M1144,12.2"/>
<path d="M1514.5,195.7v-1h3.6v1H1514.5z M1507.2,195.6v-1l3.6,0.1v1C1509.6,195.7,1508.5,195.6,1507.2,195.6z M1521.6,194.7l3.6-0.1
	v1c-1.1,0.1-2.5,0.1-3.6,0.1V194.7z M1500,194.7l0.1-1c1.1,0.1,2.5,0.4,3.6,0.4l-0.1,1C1502.3,195.1,1501.2,195.1,1500,194.7z
	 M1528.8,194.1l3.6-0.5l0.1,1l-3.6,0.5L1528.8,194.1z M1493,193.5l0.1-1c1.1,0.1,2.5,0.4,3.6,0.7l-0.1,1
	C1495.2,194.1,1494.1,193.9,1493,193.5z M1536,193.1c1.1-0.1,2.5-0.4,3.6-0.7l0.1,1c-1.1,0.1-2.5,0.5-3.6,0.7L1536,193.1z
	 M1485.8,191.8l0.1-1c1.1,0.4,2.2,0.5,3.6,1l-0.1,1C1488,192.6,1486.9,192.1,1485.8,191.8z M1543.1,191.5c1.1-0.4,2.2-0.5,3.5-1
	l0.1,1c-1.1,0.4-2.2,0.5-3.6,1V191.5z M1478.7,189.7l0.4-1c1.1,0.4,2.2,0.7,3.5,1.1l-0.4,1C1481.1,190.5,1480,190,1478.7,189.7z
	 M1549.9,189.5c1.1-0.4,2.2-0.7,3.5-1.1l0.4,1c-1.1,0.4-2.2,0.7-3.5,1.1L1549.9,189.5z M1471.9,187.2l0.4-1c1.1,0.4,2.2,1,3.5,1.4
	l-0.4,1C1474.3,188,1473.2,187.4,1471.9,187.2z M1556.6,187.2c1.1-0.4,2.2-1,3.5-1.4l0.4,1c-1.1,0.5-2.2,1-3.5,1.5L1556.6,187.2z
	 M1465.5,183.8l0.4-0.7c1.1,0.5,2.1,1.1,3.2,1.5l-0.4,1C1467.7,185.1,1466.6,184.4,1465.5,183.8z M1563.1,184.1l3.2-1.6l0.4,0.7
	l-3.2,1.6L1563.1,184.1z M1459.1,180.5l0.5-0.7c1,0.5,2.1,1.1,3.2,2l-0.4,0.7C1461.1,181.6,1460.1,181.1,1459.1,180.5z
	 M1569.6,180.7c1.1-0.5,2.1-1.1,3.1-2l0.5,0.7c-1,0.5-2.1,1.4-3.2,2L1569.6,180.7z M1453.2,176.4l0.5-0.7c1,0.7,2,1.4,3.1,2.1
	l-0.5,0.7C1455.1,177.9,1454,177.1,1453.2,176.4L1453.2,176.4z M1575.7,176.9l3.1-2.1l0.5,0.7c-1,0.7-2,1.4-3.1,2.1L1575.7,176.9z
	 M1447.2,172l0.5-0.7c1,0.7,2,1.5,2.7,2.2l-0.5,0.7C1449.1,173.6,1448.1,172.8,1447.2,172z M1581.6,172.8c1-0.7,2-1.5,2.7-2.2
	l0.5,0.7c-1,0.7-2,1.5-2.7,2.2L1581.6,172.8z M1441.8,167.3l0.5-0.7c1,0.7,1.6,1.6,2.6,2.5l-0.5,0.7
	C1443.8,168.9,1442.8,168.1,1441.8,167.3z M1587.1,168.1c1-0.7,1.6-1.6,2.6-2.5l0.7,0.7c-1,1-1.6,1.6-2.6,2.5L1587.1,168.1z
	 M1436.7,162.1l0.7-0.5c0.7,1,1.6,1.6,2.5,2.6l-0.7,0.5C1438.3,163.8,1437.5,163.1,1436.7,162.1z M1592.1,163.1
	c0.7-1,1.6-1.6,2.5-2.6l0.7,0.5c-0.7,1-1.6,2-2.5,2.6L1592.1,163.1z M1432,156.4l0.7-0.5c0.7,1,1.5,2,2.2,2.7l-0.7,0.5
	C1433.5,158.4,1432.7,157.4,1432,156.4z M1597,157.7c0.7-1,1.5-2,2.2-2.7l0.7,0.5c-0.7,1-1.5,2-2.2,2.7L1597,157.7z M1427.8,150.5
	l0.7-0.5c0.5,1,1.4,2.1,2.1,3.1l-0.7,0.5C1429.3,152.6,1428.4,151.6,1427.8,150.5z M1601.2,151.9c0.7-1,1.4-2.1,2-3.1l0.7,0.5
	c-0.5,1-1.4,2.1-2.1,3.1L1601.2,151.9z M1424.1,144.3l0.7-0.4l1.6,3.2l-0.7,0.5C1425.2,146.4,1424.7,145.4,1424.1,144.3z
	 M1605,145.9l1.6-3.2l0.7,0.4l-1.6,3.2L1605,145.9z M1421,137.6l1-0.4c0.5,1.1,1,2.2,1.5,3.2l-0.7,0.4
	C1422,139.8,1421.5,138.7,1421,137.6z M1608.4,139.6c0.5-1.1,1-2.2,1.5-3.5l1,0.4c-0.4,1.1-1,2.2-1.5,3.5L1608.4,139.6z
	 M1418.3,130.9l1-0.4c0.4,1.1,0.7,2.2,1.1,3.5l-1,0.4C1419.2,133.2,1418.9,132,1418.3,130.9z M1611.1,132.8c0.4-1.1,0.7-2.2,1.1-3.5
	l1,0.4c-0.4,1.1-0.7,2.2-1.1,3.5L1611.1,132.8z M1416.5,124l1-0.1c0.1,1.1,0.5,2.2,1,3.5l-1,0.1C1417,126.4,1416.6,125.1,1416.5,124
	z M1613.3,126.1c0.4-1.1,0.5-2.2,1-3.6l1,0.1c-0.1,1.1-0.5,2.5-1,3.6L1613.3,126.1z M1414.9,116.8l1-0.1l0.5,3.6l-1,0.1
	C1415.4,119.2,1415.1,118.1,1414.9,116.8z M1614.8,118.9l0.5-3.6l1,0.1l-0.5,3.6L1614.8,118.9z M1414.2,109.7h1
	c0,1.1,0.1,2.5,0.4,3.6h-1.1L1414.2,109.7L1414.2,109.7z M1615.8,111.9c0.1-1.1,0.1-2.5,0.1-3.6h1l-0.1,3.6H1615.8z M1414.2,104.6
	v-2.2h1v3.6h-1V104.6z M1616.2,104.6V101h1v3.6H1616.2z M1415.4,98.8h-1c0-1.1,0.1-2.5,0.4-3.6l1,0.1
	C1415.5,96.3,1415.4,97.7,1415.4,98.8z M1615.4,93.9l1-0.1c0.1,1.1,0.4,2.5,0.4,3.6h-1C1615.7,96.3,1615.7,95.1,1615.4,93.9z
	 M1415.1,91.5c0.1-1.1,0.4-2.5,0.7-3.6l1,0.1l-0.5,3.6L1415.1,91.5L1415.1,91.5z M1614.2,86.9l1-0.1c0.1,1.1,0.5,2.5,0.7,3.6l-1,0.1
	C1614.7,89.2,1614.5,88,1614.2,86.9z M1416.6,84.3c0.1-0.7,0.4-1.6,0.7-2.5c0.4-1.1,0.7-2.2,1.1-3.5l1,0.4c-0.4,1.1-0.7,2.2-1.1,3.5
	c-0.1,0.7-0.4,1.6-0.5,2.5L1416.6,84.3L1416.6,84.3z M1612.2,80l1-0.4c0.4,1.1,0.7,2.2,1,3.5l-1,0.1
	C1613.1,82.2,1612.6,81.1,1612.2,80z M1609.7,73.2l1-0.4c0.4,1.1,1,2.2,1.4,3.5l-1,0.4C1610.7,75.4,1610.5,74.3,1609.7,73.2z
	 M1419.6,75.1c0.4-1.1,1-2.2,1.4-3.5l1,0.4c-0.5,1.1-1,2.2-1.4,3.5L1419.6,75.1z M1606.9,66.7l0.7-0.4c0.5,1.1,1.1,2.2,1.6,3.2
	l-1,0.4C1607.9,68.9,1607.4,67.8,1606.9,66.7z M1422.5,68.3c0.5-1.1,1.1-2.2,1.6-3.2l0.7,0.4l-1.6,3.2L1422.5,68.3z M1603.3,60.5
	l0.7-0.5c0.5,1,1.4,2.1,2,3.2l-0.7,0.4C1604.5,62.5,1603.8,61.4,1603.3,60.5z M1426,62c0.5-1.1,1.4-2.1,2-3.1l0.7,0.5
	c-0.5,1-1.4,2.1-2,3.1L1426,62z M1599.1,54.4l0.7-0.5c0.7,1,1.5,2,2.1,3.1l-0.7,0.5C1600.6,56.4,1599.8,55.3,1599.1,54.4z
	 M1429.9,55.9c0.7-1,1.5-2,2.1-3.1l0.7,0.5c-0.7,1-1.5,2-2.1,2.7L1429.9,55.9z M1594.5,49l0.7-0.5c0.7,1,1.5,2,2.2,2.7l-0.7,0.5
	C1596,50.6,1595.4,49.7,1594.5,49z M1434.3,50.1c0.7-1,1.5-2,2.5-2.7l0.7,0.5c-0.7,1-1.5,2-2.5,2.6L1434.3,50.1z M1589.7,43.8
	l0.5-0.7l2.6,2.6l-0.7,0.5C1591.4,45.4,1590.5,44.4,1589.7,43.8z M1439.2,44.6c0.7-1,1.6-1.6,2.6-2.6l0.5,0.7
	c-1,0.7-1.6,1.6-2.6,2.5L1439.2,44.6z M1584.3,38.9l0.5-0.7c1,0.7,2,1.5,2.7,2.5l-0.5,0.7C1586.1,40.3,1585.1,39.6,1584.3,38.9z
	 M1444.4,39.7c1-0.7,2-1.5,2.7-2.5l0.5,0.7c-1,0.7-2,1.5-2.7,2.2L1444.4,39.7z M1578.6,34.3l0.5-0.7c1,0.7,2,1.5,2.7,2.2l-0.5,0.7
	C1580.4,35.8,1579.6,35,1578.6,34.3z M1450.1,35c1-0.7,2-1.5,3.1-2.1l0.5,0.7c-1,0.7-2,1.4-2.7,2.1L1450.1,35z M1572.7,30.3l0.5-0.7
	c1,0.5,2.1,1.4,3.1,2l-0.5,0.7C1574.8,31.6,1573.8,31,1572.7,30.3z M1455.9,31c1-0.7,2.1-1.4,3.1-2l0.5,0.7c-1,0.5-2.1,1.4-3.1,2
	L1455.9,31z M1566.5,26.8l0.4-0.7l3.2,1.6l-0.5,0.9L1566.5,26.8z M1462.1,27.3l3.2-1.6l0.4,0.7l-3.2,1.6L1462.1,27.3z M1559.8,23.7
	l0.4-1c1.1,0.5,2.2,1,3.5,1.5l-0.4,0.7C1562,24.8,1560.9,24.2,1559.8,23.7z M1469.1,24.8l-0.4-1c1.1-0.5,2.2-1,3.5-1.5l0.4,1
	C1471.3,23.8,1470.2,24.2,1469.1,24.8z M1553.3,21.1l0.4-1c1.1,0.4,2.2,0.7,3.5,1.4l-0.4,1C1555.5,21.8,1554.2,21.3,1553.3,21.1z
	 M1475.3,21.1c1.1-0.4,2.2-1,3.5-1.4l0.4,1c-1.1,0.4-2.2,0.7-3.5,1.4L1475.3,21.1z M1546.3,18.7l0.1-1c1.1,0.4,2.2,0.7,3.6,1.1
	l-0.4,1C1548.7,19.5,1547.6,19.1,1546.3,18.7z M1482.2,18.6c1.1-0.4,2.2-0.7,3.6-1l0.1,1c-1.1,0.4-2.2,0.7-3.5,1L1482.2,18.6z
	 M1539.3,17l0.1-1c1.1,0.1,2.5,0.5,3.6,0.7l-0.1,1C1541.8,17.6,1540.7,17.1,1539.3,17z M1489.1,16.6c1.1-0.4,2.5-0.5,3.6-0.7l0.1,1
	c-1.1,0.1-2.2,0.5-3.6,0.7L1489.1,16.6z M1532.4,15.6l0.1-1l3.6,0.5l-0.1,1C1534.6,16,1533.5,15.9,1532.4,15.6z M1496.3,15.1
	l3.6-0.5l0.1,1l-3.6,0.5L1496.3,15.1z M1525.2,14.9v-1c1.1,0.1,2.5,0.1,3.6,0.4l-0.1,1C1527.4,15.1,1526.3,14.9,1525.2,14.9z
	 M1503.5,14.3c1.1-0.1,2.5-0.1,3.6-0.4v1c-1.1,0-2.5,0.1-3.6,0.4V14.3z M1517.9,14.5v-1c1.1,0,2.5,0,3.6,0.1v1
	C1520.4,14.5,1519.1,14.5,1517.9,14.5z M1510.7,13.5c1.1,0,2.5,0,3.6-0.1v1c-1.1,0-2.5,0-3.6,0.1V13.5z"/>
<path fill="#FFFFFF" d="M1346,214.1l0.7,0.3l-4.3,10.9l-0.7-0.3L1346,214.1z M1351.1,216.1l0.7,0.3l-4.2,11l-0.7-0.3L1351.1,216.1z
	 M1356.2,218.1l0.7,0.3l-4.4,10.8l-0.7-0.3L1356.2,218.1z M1361.5,219.9l0.7,0.3l-4.3,10.9l-0.7-0.3L1361.5,219.9z M1366.7,221.8
	l0.7,0.3l-4.2,11l-0.7-0.3L1366.7,221.8z M1371.9,223.8l0.7,0.3l-4.4,10.8l-0.7-0.3L1371.9,223.8z M1377.3,225.9l0.7,0.3l-4.3,10.9
	l-0.7-0.3L1377.3,225.9z M1382.2,227.7l0.7,0.3l-4.2,11l-0.7-0.3L1382.2,227.7z M1387.5,229.7l0.7,0.3l-4.4,10.8l-0.7-0.3
	L1387.5,229.7z M1392.8,231.6l0.7,0.3l-4.3,10.9l-0.7-0.3L1392.8,231.6z M1397.8,233.5l0.7,0.3l-4.2,11l-0.7-0.3L1397.8,233.5z
	 M1403,235.5l0.7,0.3l-4.4,10.8l-0.7-0.3L1403,235.5z M1408.4,237.4l0.7,0.3l-4.3,10.9l-0.7-0.3L1408.4,237.4z M1413.4,239.3
	l0.7,0.3l-4.2,11l-0.7-0.3L1413.4,239.3z"/>
<path d="M1345,142.3l0.1,3.1l5.9-1.4L1345,142.3z"/>
<path fill="#FFFFFF" d="M955.9,166.1l61.9-5.6l1.1-65.2l-60.1,1.4L955.9,166.1"/>
<path d="M986.9,214.7l39-30.4l0.7,0.5l-39.2,30.6L986.9,214.7z M990.3,217.9l39-30.6l0.5,0.7L991,218.7L990.3,217.9z M993.6,221
	l39.2-30.6l0.5,0.6l-39.2,30.9L993.6,221z M996.8,224.2l39.3-31l0.5,0.9l-39,31L996.8,224.2z M1000.1,227.6l39.3-31.3l0.6,0.7
	l-39.3,31L1000.1,227.6z M1003.4,230.4l39.3-31.1l0.7,0.9l-39.3,31.1L1003.4,230.4z M1006.7,233.7l39.3-31.4l0.5,0.6l-39,31.5
	L1006.7,233.7z M1010,237l39.4-31.6l0.5,0.7l-39.3,31.5L1010,237z M1013.2,240l39.5-31.6l0.6,0.6l-39.5,31.8L1013.2,240z
	 M1016.5,243.3l39.7-32l0.6,0.9l-39.4,32L1016.5,243.3z M1019.9,246.5l39.4-32.1l0.9,0.7l-39.8,32.1L1019.9,246.5z M1023.1,249.6
	l39.7-32.3l0.5,0.7l-39.4,32.4L1023.1,249.6z M1026.6,252.9l39.5-32.5l0.5,0.6l-39.5,32.5L1026.6,252.9z M1145.1-167.1l19.4,46.5
	l21.1-39.8l-9.9-23l11.9,4.3l-14.5-18.3l13.3,4.4l-10.1-10.5l21.9-1.7l-6.3,13.1l48.2-18.3l2.5,14l26.3-24l-65.9-30.3l-37.7,30.6
	l-7.7,9.1"/>
<path fill="#619210" d="M1147.4-141.9l24.6-7.7v-5.6l-72.4,19.8l1.7,8.4"/>
<path d="M1217.6,17.5l-8.2-33.4l-24.3,87.1"/>
<ellipse transform="matrix(-0.9539 0.3 -0.3 -0.9539 2196.0493 -591.214)" fill="#FFFFFF" cx="1143.4" cy="-127" rx="15.7" ry="31"/>
<path fill="#619210" d="M1235.7-208.6c-17.1,0-27.4-9.9-33.5-19.9c-3.1-5.1-5.1-9.9-6.3-13.8c-0.1-0.7-0.4-1.4-0.5-2l-1.5,1.4
	c3.2,10.5,13,33.5,37.8,36.1L1235.7-208.6z M1193.4-226.2c-2.5-4.6-4-9-5.1-12.6l-1.5,1.4c3.5,11.7,12.2,30.6,33.7,34.6l3.7-1.4
	C1208-205.9,1198.9-215.9,1193.4-226.2z"/>
<path d="M1258.5-87.1l8.2-10.3l1.4,6.1"/>
<path fill="#A4C921" d="M1151.9,172.4l6.2-4.3l-13.2-30.6"/>
<path fill="#619210" d="M1063.9,4.6l170.3,206.6l30.9-17.5L1096.5-61.8C1082.1-41.9,1070.8-19.7,1063.9,4.6L1063.9,4.6z"/>
<circle cx="1221.3" cy="180.5" r="4.6"/>
<circle cx="1228" cy="188.5" r="4.6"/>
<circle cx="1234.4" cy="196.8" r="4.6"/>
<circle fill="#FFFFFF" cx="1549.9" cy="-145.6" r="12.2"/>
<path fill="#619210" d="M1526.1-208.6l-28.3,56.3l100.5,10.4l-12.1-58.3"/>
<path d="M1565-187l110-75l3.2,4.7l-110,75L1565-187z"/>
<circle fill="#619210" cx="1679.4" cy="-260.4" r="10.4"/>
<path fill="#619210" d="M1638.4-42.1l44-222.6l5.6,1.1L1643.8-41L1638.4-42.1z M1626.3-47.1l-6.8,16.6l30,6.8l5.9-16.8"/>
<circle cx="1654.1" cy="-51.2" r="6.3"/>
<circle cx="1679.8" cy="-261.3" r="6.3"/>
<path d="M1561-203.8l25.1,3.6l12.1,58.3l-6.3-0.9l-39.2-3.8L1561-203.8z"/>
<path fill="#CEE7A2" d="M1138.1-157c-1.4-0.1-2.5-0.1-3.7,0.1c-8.3,2.6-10.9,18-5.7,34.4c5.1,16.4,15.9,27.4,24.2,24.8
	c1-0.4,1.6-0.7,2.5-1.4L1138.1-157z"/>
<path fill="#619210" d="M1250.1-73.5c0,0-13.1-1.6-22.4,8.3h20.6"/>
<path fill="#A4C921" d="M1448.7,108.6l-1-3.6l-10.4,2.6l-0.7-3.7l-3.7,0.7l0.7,3.6l-28.2,4v-0.5c0-3.2,0.5-6.1,1-8.2
	c0.4-2.1,1-3.2,1-3.2l-3.6-1.4c0,0.1-2.1,5.6-2.1,12.6v1.1l-27.8,4l0.5,3.7l27.6-4c0.5,3.7,2.1,7.9,4.7,11.7l-28.5,20.3l2.2,3.1
	l28.8-20.5c2.6,2.6,6.2,5.1,10.8,6.9l1.4-3.6c-4-1.5-6.8-3.6-9-5.7l22.6-15.9l0.5,3.1l3.7-0.7l-0.7-3.7L1448.7,108.6z M1409.7,126.1
	c-2.2-3.2-3.5-6.7-4-9.9l22.4-3.2L1409.7,126.1L1409.7,126.1z"/>
</svg>
